<svg xmlns="http://www.w3.org/2000/svg" width="40" height="40" viewBox="0 0 40 40" fill="none">
  <path d="M33.3337 20V31C33.3337 32.8856 33.3337 33.8284 32.7479 34.4142C32.1621 35 31.2193 35 29.3337 35H10.8337C9.74805 35 9.20525 35 8.76488 34.8612C7.83138 34.5668 7.10017 33.8356 6.80584 32.9021C6.66699 32.4617 6.66699 31.9189 6.66699 30.8333V30.8333C6.66699 29.7477 6.66699 29.2049 6.80584 28.7645C7.10017 27.8311 7.83138 27.0998 8.76488 26.8055C9.20525 26.6667 9.74805 26.6667 10.8337 26.6667H29.3337C31.2193 26.6667 32.1621 26.6667 32.7479 26.0809C33.3337 25.4951 33.3337 24.5523 33.3337 22.6667V9C33.3337 7.11438 33.3337 6.17157 32.7479 5.58579C32.1621 5 31.2193 5 29.3337 5H10.667C8.78137 5 7.83857 5 7.25278 5.58579C6.66699 6.17157 6.66699 7.11438 6.66699 9V30.8333" stroke="white" stroke-width="2"/>
  <path d="M15 13.3333L25 13.3333" stroke="white" stroke-width="2" stroke-linecap="round"/>
</svg>