<svg xmlns="http://www.w3.org/2000/svg" width="100" height="100" viewBox="0 0 100 100" fill="none">
  <path d="M83.3337 50V83.5C83.3337 85.3856 83.3337 86.3284 82.7479 86.9142C82.1621 87.5 81.2193 87.5 79.3337 87.5H22.667C19.8386 87.5 18.4244 87.5 17.5457 86.6213C16.667 85.7426 16.667 84.3284 16.667 81.5V72.6667C16.667 69.8382 16.667 68.424 17.5457 67.5453C18.4244 66.6667 19.8386 66.6667 22.667 66.6667H79.3337C81.2193 66.6667 82.1621 66.6667 82.7479 66.0809C83.3337 65.4951 83.3337 64.5523 83.3337 62.6667V16.5C83.3337 14.6144 83.3337 13.6716 82.7479 13.0858C82.1621 12.5 81.2193 12.5 79.3337 12.5H20.667C18.7814 12.5 17.8386 12.5 17.2528 13.0858C16.667 13.6716 16.667 14.6144 16.667 16.5V77.0833" stroke="#810000" stroke-width="7"/>
  <path d="M37.5 33.3334L62.5 33.3334" stroke="#810000" stroke-width="7" stroke-linecap="round"/>
</svg>