<svg xmlns="http://www.w3.org/2000/svg" width="53" height="52" viewBox="0 0 53 52" fill="none">
  <path fill-rule="evenodd" clip-rule="evenodd" d="M26.5 45.0005C36.165 45.0005 44 37.1655 44 27.5005C44 17.8355 36.165 10.0005 26.5 10.0005C16.835 10.0005 9 17.8355 9 27.5005C9 37.1655 16.835 45.0005 26.5 45.0005ZM25.3243 33.9727L35.0465 22.306L33.5101 21.0256L24.4889 31.8511L19.4299 26.792L18.0157 28.2063L23.849 34.0396L24.6233 34.8139L25.3243 33.9727Z" fill="white"/>
  <path d="M35.0465 22.306L35.4307 22.6261L35.7507 22.242L35.3666 21.9219L35.0465 22.306ZM25.3243 33.9727L25.7084 34.2928L25.3243 33.9727ZM33.5101 21.0256L33.8302 20.6415L33.4461 20.3214L33.126 20.7055L33.5101 21.0256ZM24.4889 31.8511L24.1353 32.2046L24.5225 32.5918L24.873 32.1712L24.4889 31.8511ZM19.4299 26.792L19.7834 26.4385L19.4299 26.0849L19.0763 26.4385L19.4299 26.792ZM18.0157 28.2063L17.6621 27.8527L17.3086 28.2063L17.6621 28.5598L18.0157 28.2063ZM23.849 34.0396L24.2025 33.686L23.849 34.0396ZM24.6233 34.8139L24.2697 35.1674L24.6569 35.5546L25.0074 35.134L24.6233 34.8139ZM43.5 27.5005C43.5 36.8893 35.8888 44.5005 26.5 44.5005V45.5005C36.4411 45.5005 44.5 37.4416 44.5 27.5005H43.5ZM26.5 10.5005C35.8888 10.5005 43.5 18.1116 43.5 27.5005H44.5C44.5 17.5594 36.4411 9.50049 26.5 9.50049V10.5005ZM9.5 27.5005C9.5 18.1116 17.1112 10.5005 26.5 10.5005V9.50049C16.5589 9.50049 8.5 17.5594 8.5 27.5005H9.5ZM26.5 44.5005C17.1112 44.5005 9.5 36.8893 9.5 27.5005H8.5C8.5 37.4416 16.5589 45.5005 26.5 45.5005V44.5005ZM34.6624 21.9859L24.9402 33.6526L25.7084 34.2928L35.4307 22.6261L34.6624 21.9859ZM33.19 21.4097L34.7264 22.6901L35.3666 21.9219L33.8302 20.6415L33.19 21.4097ZM24.873 32.1712L33.8942 21.3457L33.126 20.7055L24.1048 31.531L24.873 32.1712ZM19.0763 27.1456L24.1353 32.2046L24.8425 31.4975L19.7834 26.4385L19.0763 27.1456ZM18.3692 28.5598L19.7834 27.1456L19.0763 26.4385L17.6621 27.8527L18.3692 28.5598ZM24.2025 33.686L18.3692 27.8527L17.6621 28.5598L23.4954 34.3931L24.2025 33.686ZM24.9768 34.4603L24.2025 33.686L23.4954 34.3931L24.2697 35.1674L24.9768 34.4603ZM24.9402 33.6526L24.2392 34.4938L25.0074 35.134L25.7084 34.2928L24.9402 33.6526Z" fill="#810000"/>
</svg>