<svg xmlns="http://www.w3.org/2000/svg" width="52" height="52" viewBox="-6 -5 60 60" fill="none">
  <path fill-rule="evenodd" clip-rule="evenodd" d="M26 45.5C36.7696 45.5 45.5 36.7696 45.5 26C45.5 15.2304 36.7696 6.5 26 6.5C15.2304 6.5 6.5 15.2304 6.5 26C6.5 36.7696 15.2304 45.5 26 45.5ZM27.5 14.0833C27.5 13.2549 26.8284 12.5833 26 12.5833C25.1716 12.5833 24.5 13.2549 24.5 14.0833V25.75C24.5 26.7165 25.2835 27.5 26.25 27.5H33.5833C34.4118 27.5 35.0833 26.8284 35.0833 26C35.0833 25.1716 34.4118 24.5 33.5833 24.5H27.5V14.0833Z" fill="white"/>
</svg>