<svg width="75" height="74" viewBox="0 0 75 74" fill="none" xmlns="http://www.w3.org/2000/svg">
<rect width="75" height="74" rx="5" fill="#810000"/>
<rect width="75" height="74" rx="5" stroke="#810000"/>
<ellipse cx="26.5625" cy="30.5253" rx="6.5625" ry="6.475" fill="white"/>
<ellipse cx="48.4375" cy="30.5253" rx="6.5625" ry="6.475" fill="white"/>
<ellipse cx="37.5" cy="30.5249" rx="8.75" ry="8.63333" fill="white"/>
<path fill-rule="evenodd" clip-rule="evenodd" d="M49.6812 49.9499H56.0812C56.6734 49.9499 57.1286 49.4427 57.019 48.8608C56.5032 46.1207 54.5875 39.1582 48.4377 39.1582C46.4994 39.1582 44.9817 39.8499 43.7959 40.883C47.0941 42.9943 48.7994 46.6913 49.6812 49.9499Z" fill="white"/>
<path fill-rule="evenodd" clip-rule="evenodd" d="M31.2043 40.883C30.0185 39.8499 28.5008 39.1582 26.5625 39.1582C20.4128 39.1582 18.497 46.1207 17.9812 48.8607C17.8716 49.4427 18.3268 49.9499 18.919 49.9499H25.319C26.2008 46.6913 27.9061 42.9943 31.2043 40.883Z" fill="white"/>
<path d="M37.5 41.3169C46.5815 41.3169 48.1226 50.2448 48.3841 53.2748C48.4315 53.825 47.9898 54.2669 47.4375 54.2669H27.5625C27.0102 54.2669 26.5685 53.825 26.6159 53.2748C26.8774 50.2448 28.4185 41.3169 37.5 41.3169Z" fill="white"/>
</svg>
