<svg xmlns="http://www.w3.org/2000/svg" width="53" height="52" viewBox="0 0 53 52" fill="none">
  <path d="M21.625 19.525C21.625 22.8186 18.9171 25.5 15.5625 25.5C12.2079 25.5 9.5 22.8186 9.5 19.525C9.5 16.2315 12.2079 13.55 15.5625 13.55C18.9171 13.55 21.625 16.2315 21.625 19.525Z" fill="white" stroke="#810000"/>
  <path d="M43.5 19.525C43.5 22.8186 40.7921 25.5 37.4375 25.5C34.0829 25.5 31.375 22.8186 31.375 19.525C31.375 16.2315 34.0829 13.55 37.4375 13.55C40.7921 13.55 43.5 16.2315 43.5 19.525Z" fill="white" stroke="#810000"/>
  <path d="M34.75 19.5252C34.75 24.0108 31.0627 27.6585 26.5 27.6585C21.9373 27.6585 18.25 24.0108 18.25 19.5252C18.25 15.0396 21.9373 11.3918 26.5 11.3918C31.0627 11.3918 34.75 15.0396 34.75 19.5252Z" fill="white" stroke="#810000"/>
  <path fill-rule="evenodd" clip-rule="evenodd" d="M38.6812 38.9501H45.0812C45.6734 38.9501 46.1286 38.4429 46.019 37.861C45.5032 35.1209 43.5875 28.1584 37.4377 28.1584C35.4994 28.1584 33.9817 28.8501 32.7959 29.8833C36.0941 31.9946 37.7994 35.6915 38.6812 38.9501Z" fill="white"/>
  <path d="M38.6812 38.9501L38.1985 39.0807L38.2985 39.4501H38.6812V38.9501ZM46.019 37.861L45.5276 37.9535V37.9535L46.019 37.861ZM32.7959 29.8833L32.4675 29.5063L31.9643 29.9446L32.5263 30.3044L32.7959 29.8833ZM45.0812 38.4501H38.6812V39.4501H45.0812V38.4501ZM45.5276 37.9535C45.5744 38.2021 45.3867 38.4501 45.0812 38.4501V39.4501C45.9601 39.4501 46.6827 38.6837 46.5104 37.7685L45.5276 37.9535ZM37.4377 28.6584C40.2846 28.6584 42.1628 30.2559 43.418 32.2487C44.6808 34.2535 45.2742 36.6072 45.5276 37.9535L46.5104 37.7685C46.248 36.3748 45.6256 33.8771 44.2642 31.7157C42.8951 29.5422 40.7406 27.6584 37.4377 27.6584V28.6584ZM33.1243 30.2603C34.2276 29.299 35.631 28.6584 37.4377 28.6584V27.6584C35.3679 27.6584 33.7358 28.4012 32.4675 29.5063L33.1243 30.2603ZM32.5263 30.3044C35.6692 32.3162 37.329 35.8674 38.1985 39.0807L39.1638 38.8195C38.2698 35.5156 36.519 31.6729 33.0655 29.4622L32.5263 30.3044Z" fill="#810000"/>
  <path fill-rule="evenodd" clip-rule="evenodd" d="M20.2043 29.8832C19.0185 28.8501 17.5008 28.1584 15.5625 28.1584C9.41279 28.1584 7.49703 35.1209 6.9812 37.861C6.87165 38.4429 7.3268 38.9501 7.91895 38.9501H14.319C15.2008 35.6915 16.9061 31.9945 20.2043 29.8832Z" fill="white"/>
  <path d="M20.2043 29.8832L20.4739 30.3044L21.0359 29.9446L20.5328 29.5062L20.2043 29.8832ZM6.9812 37.861L7.47257 37.9535L6.9812 37.861ZM14.319 38.9501V39.4501H14.7017L14.8017 39.0807L14.319 38.9501ZM15.5625 28.6584C17.3693 28.6584 18.7726 29.299 19.8759 30.2602L20.5328 29.5062C19.2644 28.4012 17.6324 27.6584 15.5625 27.6584V28.6584ZM7.47257 37.9535C7.72602 36.6072 8.31939 34.2535 9.58221 32.2487C10.8374 30.2559 12.7156 28.6584 15.5625 28.6584V27.6584C12.2597 27.6584 10.1051 29.5422 8.73608 31.7157C7.37463 33.8771 6.75221 36.3747 6.48983 37.7685L7.47257 37.9535ZM7.91895 38.4501C7.61353 38.4501 7.42576 38.2021 7.47257 37.9535L6.48983 37.7685C6.31753 38.6837 7.04006 39.4501 7.91895 39.4501V38.4501ZM14.319 38.4501H7.91895V39.4501H14.319V38.4501ZM14.8017 39.0807C15.6712 35.8674 17.331 32.3162 20.4739 30.3044L19.9348 29.4621C16.4812 31.6728 14.7304 35.5156 13.8364 38.8195L14.8017 39.0807Z" fill="#810000"/>
  <path d="M26.5 30.3167C35.5815 30.3167 37.1226 39.2445 37.3841 42.2745C37.4315 42.8248 36.9898 43.2667 36.4375 43.2667H16.5625C16.0102 43.2667 15.5685 42.8247 15.6159 42.2745C15.8774 39.2445 17.4185 30.3167 26.5 30.3167Z" fill="white" stroke="#810000" stroke-linecap="round"/>
</svg>