<svg xmlns="http://www.w3.org/2000/svg" width="100" height="100" viewBox="0 0 100 100" fill="none">
  <path d="M63.1663 33.3333C63.1663 40.605 57.2714 46.5 49.9997 46.5C42.7279 46.5 36.833 40.605 36.833 33.3333C36.833 26.0615 42.7279 20.1666 49.9997 20.1666C57.2714 20.1666 63.1663 26.0615 63.1663 33.3333Z" stroke="#810000" stroke-width="7" stroke-linecap="round"/>
  <path d="M60.1855 45.0942L63.1111 43.173L61.4074 40.5787L58.628 41.9599L60.1855 45.0942ZM60 45.1848L58.4865 42.029L54.8816 43.7579L57.0721 47.1024L60 45.1848ZM67.3685 30.1469L66.8136 26.6912L62.9967 27.304L63.9847 31.0414L67.3685 30.1469ZM67.4169 30.3361L64.0195 31.1774L64.7924 34.2987L67.9679 33.7925L67.4169 30.3361ZM58.628 41.9599C58.5811 41.9832 58.5339 42.0063 58.4865 42.029L61.5135 48.3406C61.5903 48.3038 61.6668 48.2665 61.7431 48.2286L58.628 41.9599ZM57.0721 47.1024C59.6252 51.0007 64.1612 53.5 69.22 53.5V46.5C66.4639 46.5 64.1561 45.1425 62.9279 43.2672L57.0721 47.1024ZM69.22 53.5C76.8545 53.5 83.5003 47.6988 83.5003 40H76.5003C76.5003 43.3468 73.4931 46.5 69.22 46.5V53.5ZM83.5003 40C83.5003 32.3012 76.8545 26.5 69.22 26.5V33.5C73.4931 33.5 76.5003 36.6532 76.5003 40H83.5003ZM69.22 26.5C68.4024 26.5 67.5982 26.5652 66.8136 26.6912L67.9233 33.6027C68.3418 33.5355 68.7749 33.5 69.22 33.5V26.5ZM63.9847 31.0414C63.9967 31.0866 64.0083 31.132 64.0195 31.1774L70.8143 29.4949C70.7942 29.4138 70.7735 29.333 70.7522 29.2524L63.9847 31.0414ZM67.9679 33.7925C68.372 33.7281 68.7902 33.6941 69.22 33.6941V26.6941C68.4204 26.6941 67.6337 26.7574 66.8659 26.8798L67.9679 33.7925ZM69.22 33.6941C73.3776 33.6941 76.2911 36.7603 76.2911 40H83.2911C83.2911 32.4083 76.7389 26.6941 69.22 26.6941V33.6941ZM76.2911 40C76.2911 43.2397 73.3776 46.3059 69.22 46.3059V53.3059C76.7389 53.3059 83.2911 47.5917 83.2911 40H76.2911ZM69.22 46.3059C66.5429 46.3059 64.3037 44.989 63.1111 43.173L57.26 47.0155C59.778 50.8499 64.2429 53.3059 69.22 53.3059V46.3059Z" fill="#810000"/>
  <path d="M39.8145 45.0942L36.8889 43.173L38.5926 40.5787L41.372 41.9599L39.8145 45.0942ZM40 45.1848L41.5135 42.029L45.1184 43.7579L42.9279 47.1024L40 45.1848ZM32.6315 30.1469L33.1864 26.6912L37.0033 27.304L36.0153 31.0414L32.6315 30.1469ZM32.5831 30.3361L35.9805 31.1774L35.2076 34.2987L32.0321 33.7925L32.5831 30.3361ZM41.372 41.9599C41.4189 41.9832 41.4661 42.0063 41.5135 42.029L38.4865 48.3406C38.4097 48.3038 38.3332 48.2665 38.2569 48.2286L41.372 41.9599ZM42.9279 47.1024C40.3748 51.0007 35.8388 53.5 30.78 53.5V46.5C33.5361 46.5 35.8439 45.1425 37.0721 43.2672L42.9279 47.1024ZM30.78 53.5C23.1455 53.5 16.4997 47.6988 16.4997 40H23.4997C23.4997 43.3468 26.5069 46.5 30.78 46.5V53.5ZM16.4997 40C16.4997 32.3012 23.1455 26.5 30.78 26.5V33.5C26.5069 33.5 23.4997 36.6532 23.4997 40H16.4997ZM30.78 26.5C31.5976 26.5 32.4018 26.5652 33.1864 26.6912L32.0767 33.6027C31.6582 33.5355 31.2251 33.5 30.78 33.5V26.5ZM36.0153 31.0414C36.0033 31.0866 35.9917 31.132 35.9805 31.1774L29.1857 29.4949C29.2058 29.4138 29.2265 29.333 29.2478 29.2524L36.0153 31.0414ZM32.0321 33.7925C31.628 33.7281 31.2098 33.6941 30.78 33.6941V26.6941C31.5796 26.6941 32.3663 26.7574 33.1341 26.8798L32.0321 33.7925ZM30.78 33.6941C26.6224 33.6941 23.7089 36.7603 23.7089 40H16.7089C16.7089 32.4083 23.2611 26.6941 30.78 26.6941V33.6941ZM23.7089 40C23.7089 43.2397 26.6224 46.3059 30.78 46.3059V53.3059C23.2611 53.3059 16.7089 47.5917 16.7089 40H23.7089ZM30.78 46.3059C33.4571 46.3059 35.6963 44.989 36.8889 43.173L42.74 47.0155C40.222 50.8499 35.7571 53.3059 30.78 53.3059V46.3059Z" fill="#810000"/>
  <path d="M70.3403 74.9998L66.9091 75.6908L67.4749 78.4998H70.3403V74.9998ZM87.1833 73.3371L83.7733 74.1259L83.7733 74.1259L87.1833 73.3371ZM61.5869 61.2937L59.4699 58.5065L55.422 61.5811L59.7385 64.2658L61.5869 61.2937ZM85.801 71.4998H70.3403V78.4998H85.801V71.4998ZM83.7733 74.1259C83.4199 72.5985 84.6753 71.4998 85.801 71.4998V78.4998C88.7311 78.4998 91.3533 75.8337 90.5932 72.5482L83.7733 74.1259ZM70.8335 61.8331C75.4325 61.8331 78.3174 63.8715 80.2756 66.3976C82.3303 69.0482 83.3368 72.239 83.7733 74.1259L90.5932 72.5482C90.0539 70.2169 88.7512 65.9057 85.808 62.1089C82.7682 58.1876 77.9662 54.8331 70.8335 54.8331V61.8331ZM63.7039 64.0809C65.42 62.7774 67.6938 61.8331 70.8335 61.8331V54.8331C66.1403 54.8331 62.3842 56.293 59.4699 58.5065L63.7039 64.0809ZM59.7385 64.2658C64.298 67.1015 66.1687 72.0141 66.9091 75.6908L73.7714 74.3088C72.8778 69.872 70.4075 62.6579 63.4354 58.3216L59.7385 64.2658Z" fill="#810000"/>
  <path d="M38.4146 61.2939L40.2631 64.266L44.5796 61.5813L40.5316 58.5067L38.4146 61.2939ZM12.8183 73.3373L16.2282 74.1262L16.2282 74.1262L12.8183 73.3373ZM29.6612 75V78.5H32.5266L33.0923 75.6911L29.6612 75ZM29.1681 61.8334C32.3078 61.8334 34.5816 62.7776 36.2976 64.081L40.5316 58.5067C37.6174 56.2932 33.8613 54.8334 29.1681 54.8334V61.8334ZM16.2282 74.1262C16.6648 72.2392 17.6712 69.0484 19.726 66.3978C21.6842 63.8718 24.5692 61.8334 29.1681 61.8334V54.8334C22.0354 54.8334 17.2335 58.1878 14.1936 62.1091C11.2503 65.9059 9.94771 70.2171 9.40835 72.5484L16.2282 74.1262ZM14.2006 71.5C15.3263 71.5 16.5816 72.5987 16.2282 74.1262L9.40835 72.5484C8.64824 75.8339 11.2704 78.5 14.2006 78.5V71.5ZM29.6612 71.5H14.2006V78.5H29.6612V71.5ZM33.0923 75.6911C33.8328 72.0144 35.7035 67.1017 40.2631 64.266L36.5662 58.3218C29.594 62.658 27.1237 69.8722 26.2301 74.309L33.0923 75.6911Z" fill="#810000"/>
  <path d="M50.0003 58.3334C67.4265 58.3334 70.2764 72.9095 70.7425 77.6773C70.8231 78.5018 70.1621 79.1667 69.3337 79.1667H30.667C29.8386 79.1667 29.1775 78.5018 29.2581 77.6773C29.7242 72.9095 32.5742 58.3334 50.0003 58.3334Z" stroke="#810000" stroke-width="7" stroke-linecap="round"/>
</svg>