<svg xmlns="http://www.w3.org/2000/svg" width="40" height="40" viewBox="0 0 40 40" fill="none">
  <circle cx="19.9997" cy="13.3334" r="5.66667" stroke="white" stroke-width="2" stroke-linecap="round"/>
  <path d="M24.0742 18.0377L24.9101 17.4888L24.4233 16.7475L23.6292 17.1422L24.0742 18.0377ZM24 18.0739L23.5676 17.1723L22.5376 17.6662L23.1634 18.6218L24 18.0739ZM26.9474 12.0588L26.7889 11.0714L25.6983 11.2465L25.9806 12.3143L26.9474 12.0588ZM26.9668 12.1345L25.9961 12.3748L26.2169 13.2666L27.1242 13.122L26.9668 12.1345ZM23.6292 17.1422C23.6088 17.1523 23.5882 17.1624 23.5676 17.1723L24.4324 18.9756C24.4615 18.9617 24.4904 18.9475 24.5192 18.9332L23.6292 17.1422ZM23.1634 18.6218C24.109 20.0655 25.7961 21 27.688 21V19C26.454 19 25.4035 18.3918 24.8366 17.526L23.1634 18.6218ZM27.688 21C30.5497 21 33.0001 18.8309 33.0001 16H31.0001C31.0001 17.5874 29.5893 19 27.688 19V21ZM33.0001 16C33.0001 13.1691 30.5497 11 27.688 11V13C29.5893 13 31.0001 14.4126 31.0001 16H33.0001ZM27.688 11C27.3823 11 27.0818 11.0244 26.7889 11.0714L27.1059 13.0461C27.2942 13.0159 27.4887 13 27.688 13V11ZM25.9806 12.3143C25.9859 12.3344 25.9911 12.3546 25.9961 12.3748L27.9374 11.8941C27.9299 11.8637 27.9222 11.8334 27.9142 11.8032L25.9806 12.3143ZM27.1242 13.122C27.3066 13.0929 27.495 13.0776 27.688 13.0776V11.0776C27.3893 11.0776 27.0957 11.1013 26.8093 11.1469L27.1242 13.122ZM27.688 13.0776C29.5431 13.0776 30.9164 14.4554 30.9164 16H32.9164C32.9164 13.212 30.5035 11.0776 27.688 11.0776V13.0776ZM30.9164 16C30.9164 17.5446 29.5431 18.9224 27.688 18.9224V20.9224C30.5035 20.9224 32.9164 18.788 32.9164 16H30.9164ZM27.688 18.9224C26.4857 18.9224 25.4629 18.3305 24.9101 17.4888L23.2383 18.5866C24.1698 20.005 25.8286 20.9224 27.688 20.9224V18.9224Z" fill="white"/>
  <path d="M15.9258 18.0377L15.0899 17.4888L15.5767 16.7475L16.3708 17.1422L15.9258 18.0377ZM16 18.0739L16.4324 17.1723L17.4624 17.6662L16.8366 18.6218L16 18.0739ZM13.0526 12.0588L13.2111 11.0714L14.3017 11.2465L14.0194 12.3143L13.0526 12.0588ZM13.0332 12.1345L14.0039 12.3748L13.7831 13.2666L12.8758 13.122L13.0332 12.1345ZM16.3708 17.1422C16.3912 17.1523 16.4118 17.1624 16.4324 17.1723L15.5676 18.9756C15.5385 18.9617 15.5096 18.9475 15.4808 18.9332L16.3708 17.1422ZM16.8366 18.6218C15.891 20.0655 14.2039 21 12.312 21V19C13.546 19 14.5965 18.3918 15.1634 17.526L16.8366 18.6218ZM12.312 21C9.45028 21 6.99988 18.8309 6.99988 16H8.99988C8.99988 17.5874 10.4107 19 12.312 19V21ZM6.99988 16C6.99988 13.1691 9.45028 11 12.312 11V13C10.4107 13 8.99988 14.4126 8.99988 16H6.99988ZM12.312 11C12.6177 11 12.9182 11.0244 13.2111 11.0714L12.8941 13.0461C12.7058 13.0159 12.5113 13 12.312 13V11ZM14.0194 12.3143C14.0141 12.3344 14.0089 12.3546 14.0039 12.3748L12.0626 11.8941C12.0701 11.8637 12.0778 11.8334 12.0858 11.8032L14.0194 12.3143ZM12.8758 13.122C12.6934 13.0929 12.505 13.0776 12.312 13.0776V11.0776C12.6107 11.0776 12.9043 11.1013 13.1907 11.1469L12.8758 13.122ZM12.312 13.0776C10.4569 13.0776 9.08356 14.4554 9.08356 16H7.08356C7.08356 13.212 9.4965 11.0776 12.312 11.0776V13.0776ZM9.08356 16C9.08356 17.5446 10.4569 18.9224 12.312 18.9224V20.9224C9.4965 20.9224 7.08356 18.788 7.08356 16H9.08356ZM12.312 18.9224C13.5143 18.9224 14.5371 18.3305 15.0899 17.4888L16.7617 18.5866C15.8302 20.005 14.1714 20.9224 12.312 20.9224V18.9224Z" fill="white"/>
  <path d="M28.1361 29.9999L27.1558 30.1974L27.3174 30.9999H28.1361V29.9999ZM34.5959 28.3537L35.5442 28.0363L35.5442 28.0363L34.5959 28.3537ZM24.6348 24.5175L24.0299 23.7211L22.8733 24.5996L24.1066 25.3666L24.6348 24.5175ZM33.3009 28.9999H28.1361V30.9999H33.3009V28.9999ZM33.6476 28.6711C33.6654 28.7245 33.6637 28.7598 33.6593 28.7826C33.6545 28.8076 33.6424 28.837 33.6171 28.8682C33.5652 28.9322 33.4585 28.9999 33.3009 28.9999V30.9999C34.7536 30.9999 36.0877 29.6604 35.5442 28.0363L33.6476 28.6711ZM28.3334 24.3333C31.6009 24.3333 33.0242 26.8088 33.6476 28.6711L35.5442 28.0363C34.846 25.9504 32.9524 22.3333 28.3334 22.3333V24.3333ZM25.2396 25.3138C25.9945 24.7404 26.9887 24.3333 28.3334 24.3333V22.3333C26.5449 22.3333 25.1271 22.8877 24.0299 23.7211L25.2396 25.3138ZM24.1066 25.3666C26.0683 26.5867 26.8508 28.6832 27.1558 30.1974L29.1164 29.8025C28.7677 28.0712 27.8139 25.3171 25.1629 23.6683L24.1066 25.3666Z" fill="white"/>
  <path d="M15.3653 24.5175L15.8935 25.3666L17.1268 24.5996L15.9702 23.7211L15.3653 24.5175ZM5.40425 28.3537L6.35255 28.6711L6.35255 28.6711L5.40425 28.3537ZM11.864 29.9999V30.9999H12.6826L12.8443 30.1974L11.864 29.9999ZM11.6667 24.3333C13.0114 24.3333 14.0056 24.7404 14.7605 25.3138L15.9702 23.7211C14.873 22.8877 13.4553 22.3333 11.6667 22.3333V24.3333ZM6.35255 28.6711C6.97589 26.8088 8.39927 24.3333 11.6667 24.3333V22.3333C7.04772 22.3333 5.15414 25.9504 4.45596 28.0363L6.35255 28.6711ZM6.69921 28.9999C6.54163 28.9999 6.43487 28.9322 6.38302 28.8682C6.35772 28.837 6.34563 28.8076 6.34081 28.7826C6.33643 28.7598 6.3347 28.7245 6.35255 28.6711L4.45596 28.0363C3.91238 29.6604 5.24651 30.9999 6.69921 30.9999V28.9999ZM11.864 28.9999H6.69921V30.9999H11.864V28.9999ZM12.8443 30.1974C13.1492 28.6832 13.9318 26.5867 15.8935 25.3666L14.8372 23.6683C12.1862 25.317 11.2323 28.0712 10.8836 29.8025L12.8443 30.1974Z" fill="white"/>
  <path d="M20.0003 23.3333C26.0902 23.3333 27.7297 27.7837 28.1711 30.1799C28.3211 30.9946 27.6621 31.6666 26.8337 31.6666H13.167C12.3386 31.6666 11.6795 30.9946 11.8296 30.1799C12.2709 27.7837 13.9104 23.3333 20.0003 23.3333Z" stroke="white" stroke-width="2" stroke-linecap="round"/>
</svg>