<svg xmlns="http://www.w3.org/2000/svg" width="15" height="15" viewBox="0 0 15 15" fill="none">
  <path d="M13.3929 6.5625H12.5893V4.45312C12.5893 1.99805 10.3058 0 7.5 0C4.6942 0 2.41071 1.99805 2.41071 4.45312V6.5625H1.60714C0.719866 6.5625 0 7.19238 0 7.96875V13.5938C0 14.3701 0.719866 15 1.60714 15H13.3929C14.2801 15 15 14.3701 15 13.5938V7.96875C15 7.19238 14.2801 6.5625 13.3929 6.5625ZM9.91071 6.5625H5.08929V4.45312C5.08929 3.29004 6.17076 2.34375 7.5 2.34375C8.82924 2.34375 9.91071 3.29004 9.91071 4.45312V6.5625Z" fill="black"/>
</svg>