<svg xmlns="http://www.w3.org/2000/svg" width="30" height="30" viewBox="-5 -5 45 45" fill="none">
  <path d="M17.5136 4.1644L21.1724 3.55461C23.7869 3.11885 25.0942 2.90097 26.0402 3.46693C26.3218 3.63537 26.5738 3.84887 26.7862 4.09891C27.5 4.939 27.5 6.26431 27.5 8.91492V21.3325C27.5 23.7501 27.5 24.9589 26.8997 25.759C26.6294 26.1194 26.2813 26.4142 25.8814 26.6217C24.9935 27.0822 23.8011 26.8835 21.4164 26.4861L17.5136 25.8356L17.5136 25.8356C15.1191 25.4365 13.9219 25.237 13.2109 24.3977C12.5 23.5585 12.5 22.3448 12.5 19.9172V10.0828C12.5 7.65525 12.5 6.44149 13.2109 5.60226C13.9219 4.76302 15.1191 4.56348 17.5136 4.1644Z" fill="white"/>
  <path d="M3.75 15L3.28148 14.6252L2.98163 15L3.28148 15.3748L3.75 15ZM15 15.6C15.3314 15.6 15.6 15.3314 15.6 15C15.6 14.6686 15.3314 14.4 15 14.4V15.6ZM8.28148 8.37518L3.28148 14.6252L4.21852 15.3748L9.21852 9.12482L8.28148 8.37518ZM3.28148 15.3748L8.28148 21.6248L9.21852 20.8752L4.21852 14.6252L3.28148 15.3748ZM3.75 15.6H15V14.4H3.75V15.6Z" fill="white"/>
</svg>