<svg xmlns="http://www.w3.org/2000/svg" width="40" height="40" viewBox="-4 -4 50 50" fill="none">
  <path d="M25.8333 8.33337C28.174 8.33337 29.3444 8.33337 30.1852 8.89514C30.5491 9.13834 30.8616 9.45084 31.1048 9.81481C31.6666 10.6556 31.6666 11.8259 31.6666 14.1667V30C31.6666 33.1427 31.6666 34.7141 30.6903 35.6904C29.714 36.6667 28.1426 36.6667 24.9999 36.6667H14.9999C11.8572 36.6667 10.2859 36.6667 9.30956 35.6904C8.33325 34.7141 8.33325 33.1427 8.33325 30V14.1667C8.33325 11.8259 8.33325 10.6556 8.89502 9.81481C9.13822 9.45084 9.45072 9.13834 9.81468 8.89514C10.6554 8.33337 11.8258 8.33337 14.1666 8.33337" stroke="white" stroke-width="2"/>
  <path d="M15 8.33333C15 6.49238 16.4924 5 18.3333 5H21.6667C23.5076 5 25 6.49238 25 8.33333C25 10.1743 23.5076 11.6667 21.6667 11.6667H18.3333C16.4924 11.6667 15 10.1743 15 8.33333Z" stroke="white" stroke-width="2"/>
  <path d="M15 20L25 20" stroke="white" stroke-width="2" stroke-linecap="round"/>
  <path d="M15 26.6666L21.6667 26.6666" stroke="white" stroke-width="2" stroke-linecap="round"/>
</svg>