<svg xmlns="http://www.w3.org/2000/svg" width="15" height="15" viewBox="0 0 15 15" fill="none">
  <path fill-rule="evenodd" clip-rule="evenodd" d="M11.0279 6.47182L11.8748 5.62494C12.5651 4.93459 12.5651 3.8153 11.8748 3.12494C11.1844 2.43459 10.0651 2.43459 9.37477 3.12495L8.51283 3.98689C9.10043 5.02958 9.97057 5.89286 11.0279 6.47182ZM7.05787 5.44184L3.35615 9.14357C2.93109 9.56863 2.71856 9.78116 2.57883 10.0423C2.43909 10.3033 2.38015 10.5981 2.26226 11.1875L2.02186 12.3895C1.95534 12.7221 1.92208 12.8884 2.01668 12.983C2.11129 13.0776 2.27759 13.0444 2.61019 12.9779L2.61021 12.9779L3.81219 12.7375L3.8122 12.7375C4.40164 12.6196 4.69637 12.5606 4.95746 12.4209C5.21856 12.2812 5.43109 12.0686 5.85615 11.6436L9.56912 7.93059C8.56334 7.28627 7.70799 6.43659 7.05787 5.44184Z" fill="white"/>
</svg>