<svg xmlns="http://www.w3.org/2000/svg" width="15" height="15" viewBox="0 0 15 15" fill="none">
  <path d="M7.5 7.5C9.86719 7.5 11.7857 5.82129 11.7857 3.75C11.7857 1.67871 9.86719 0 7.5 0C5.13281 0 3.21429 1.67871 3.21429 3.75C3.21429 5.82129 5.13281 7.5 7.5 7.5ZM10.5 8.4375H9.94085C9.19754 8.73633 8.37054 8.90625 7.5 8.90625C6.62946 8.90625 5.8058 8.73633 5.05915 8.4375H4.5C2.01562 8.4375 0 10.2012 0 12.375V13.5938C0 14.3701 0.719866 15 1.60714 15H13.3929C14.2801 15 15 14.3701 15 13.5938V12.375C15 10.2012 12.9844 8.4375 10.5 8.4375Z" fill="black"/>
</svg>