<svg width="83" height="90" viewBox="0 0 83 90" fill="none" xmlns="http://www.w3.org/2000/svg">
<rect x="-7" width="90" height="90"/>
<path d="M45.6801 9.30099L49.1627 8.95273L49.1627 8.95273L45.6801 9.30099ZM45.266 7.75855L47.6145 5.16347L47.6145 5.16347L45.266 7.75855ZM46.6912 19.412L50.1738 19.0637L50.1738 19.0637L46.6912 19.412ZM49.9478 20.7609L47.7314 18.0521L47.7314 18.0521L49.9478 20.7609ZM57.8122 14.3264L60.0285 17.0352L60.0285 17.0352L57.8122 14.3264ZM59.1957 13.5285L59.0213 17.0241L59.0213 17.0241L59.1957 13.5285ZM60.4929 14.4601L58.018 16.9349L58.018 16.9349L60.4929 14.4601ZM68.5398 22.507L71.0147 20.0321L71.0147 20.0321L68.5398 22.507ZM69.4714 23.8042L65.9757 23.9785L65.9757 23.9785L69.4714 23.8042ZM68.6735 25.1877L65.9647 22.9713L65.9647 22.9713L68.6735 25.1877ZM62.2389 33.0522L64.9477 35.2686L64.9477 35.2686L62.2389 33.0522ZM60.9085 35.5109L64.1421 34.1716L64.1421 34.1715L60.9085 35.5109ZM63.5878 36.3088L63.936 32.8261L63.936 32.8261L63.5878 36.3088ZM73.699 37.3199L74.0473 33.8373L74.0473 33.8373L73.699 37.3199ZM75.2415 37.734L77.8365 35.3855L77.8365 35.3854L75.2415 37.734ZM75.2415 52.266L77.8365 54.6146L77.8365 54.6145L75.2415 52.266ZM73.699 52.6801L74.0473 56.1627L74.0473 56.1627L73.699 52.6801ZM63.5892 53.6911L63.9374 57.1737L63.9374 57.1737L63.5892 53.6911ZM60.9099 54.4889L64.1435 55.8283L64.1435 55.8283L60.9099 54.4889ZM62.2403 56.9476L59.5314 59.164L59.5314 59.164L62.2403 56.9476ZM68.6737 64.8107L65.9648 67.027L65.9648 67.027L68.6737 64.8107ZM69.4716 66.1942L65.9759 66.0198L65.9759 66.0199L69.4716 66.1942ZM68.54 67.4914L71.0149 69.9662L71.0149 69.9662L68.54 67.4914ZM60.4931 75.5383L58.0182 73.0634L58.0182 73.0634L60.4931 75.5383ZM59.1959 76.4698L59.0216 72.9742L59.0215 72.9742L59.1959 76.4698ZM57.8124 75.672L55.596 78.3808L55.5961 78.3808L57.8124 75.672ZM49.9479 69.2374L52.1642 66.5286L52.1642 66.5286L49.9479 69.2374ZM47.4892 67.907L48.8286 71.1406L48.8286 71.1406L47.4892 67.907ZM46.6914 70.5863L50.174 70.9346L50.174 70.9346L46.6914 70.5863ZM45.6801 80.699L49.1627 81.0473L49.1627 81.0473L45.6801 80.699ZM45.266 82.2415L47.6145 84.8365L47.6146 84.8365L45.266 82.2415ZM30.734 82.2415L28.3854 84.8365L28.3855 84.8365L30.734 82.2415ZM30.3199 80.699L26.8373 81.0473L26.8373 81.0473L30.3199 80.699ZM29.3088 70.5878L25.8262 70.9361L25.8262 70.9361L29.3088 70.5878ZM28.5109 67.9085L27.1715 71.1421L27.1716 71.1421L28.5109 67.9085ZM26.0522 69.2389L23.8359 66.53L23.8359 66.53L26.0522 69.2389ZM18.1875 75.6737L15.9712 72.9648L15.9712 72.9648L18.1875 75.6737ZM16.804 76.4715L16.9784 72.9759L16.9783 72.9759L16.804 76.4715ZM15.5068 75.54L13.0319 78.0149L13.0319 78.0149L15.5068 75.54ZM7.45989 67.4931L9.93476 65.0182L9.93476 65.0182L7.45989 67.4931ZM6.52832 66.1959L10.024 66.0215L10.024 66.0215L6.52832 66.1959ZM7.32619 64.8124L4.61734 62.596L4.61734 62.596L7.32619 64.8124ZM13.7609 56.9477L11.052 54.7314L11.052 54.7314L13.7609 56.9477ZM12.412 53.6912L12.0637 57.1738L12.0637 57.1738L12.412 53.6912ZM2.30099 52.6801L1.95272 56.1627L1.95273 56.1627L2.30099 52.6801ZM0.5 50.69L-3 50.69V50.69H0.5ZM0.500001 39.31L4 39.31V39.31H0.500001ZM2.30099 37.3199L1.95273 33.8373L1.95273 33.8373L2.30099 37.3199ZM12.4134 36.3087L12.0651 32.826L12.0651 32.826L12.4134 36.3087ZM15.0927 35.5108L18.3263 36.8502L18.3263 36.8502L15.0927 35.5108ZM13.7623 33.0521L16.4712 30.8358L16.4711 30.8358L13.7623 33.0521ZM7.32636 25.186L10.0352 22.9696L10.0352 22.9696L7.32636 25.186ZM6.52849 23.8025L10.0241 23.9768L10.0241 23.9768L6.52849 23.8025ZM15.507 14.4584L17.9818 16.9332L17.9818 16.9332L15.507 14.4584ZM16.8042 13.5268L16.9785 17.0224L16.9785 17.0224L16.8042 13.5268ZM18.1877 14.3247L15.9713 17.0335L15.9713 17.0335L18.1877 14.3247ZM26.0524 20.7594L28.2687 18.0506L28.2687 18.0506L26.0524 20.7594ZM28.5111 22.0898L29.8505 25.3234L29.8505 25.3234L28.5111 22.0898ZM29.3089 19.4105L25.8263 19.0623L25.8263 19.0623L29.3089 19.4105ZM30.3199 9.30099L26.8373 8.95273L26.8373 8.95273L30.3199 9.30099ZM30.734 7.75855L28.3855 5.16347L28.3855 5.16347L30.734 7.75855ZM49.1627 8.95273C49.1292 8.61787 49.0775 8.03211 48.9576 7.51518C48.8152 6.90092 48.491 5.95665 47.6145 5.16347L42.9175 10.3536C42.6468 10.1086 42.4498 9.83199 42.3171 9.57011C42.196 9.33116 42.1504 9.14742 42.1386 9.09632C42.1274 9.04824 42.1321 9.05363 42.1464 9.16827C42.1605 9.28178 42.1748 9.42283 42.1975 9.64926L49.1627 8.95273ZM50.1738 19.0637L49.1627 8.95273L42.1975 9.64926L43.2086 19.7603L50.1738 19.0637ZM48.8284 18.8577C49.0936 18.9676 49.3488 19.1218 49.5778 19.3177C49.8036 19.5109 49.9673 19.7129 50.0821 19.8883C50.1939 20.059 50.2583 20.2026 50.2921 20.2882C50.3096 20.3324 50.3211 20.3667 50.3279 20.3885C50.3348 20.4104 50.338 20.4231 50.3383 20.4245C50.3384 20.4249 50.3314 20.3966 50.3197 20.3281C50.3082 20.2605 50.2947 20.1697 50.2793 20.0476C50.247 19.7931 50.2161 19.486 50.1738 19.0637L43.2086 19.7603C43.2784 20.4587 43.3616 21.384 43.5498 22.1323C43.7393 22.8855 44.2972 24.5576 46.1497 25.3249L48.8284 18.8577ZM47.7314 18.0521C47.403 18.3208 47.164 18.516 46.9612 18.6732C46.8639 18.7486 46.7902 18.8033 46.7342 18.8429C46.6775 18.8831 46.6526 18.8981 46.6529 18.8979C46.6542 18.8972 46.6654 18.8905 46.6857 18.8799C46.706 18.8693 46.7384 18.8531 46.7819 18.8342C46.8664 18.7976 47.0134 18.7416 47.2132 18.6999C47.4184 18.6571 47.6771 18.63 47.9733 18.6531C48.2738 18.6765 48.5632 18.7479 48.8284 18.8577L46.1497 25.3249C48.0021 26.0922 49.5789 25.3043 50.2455 24.9057C50.9077 24.5097 51.6208 23.9143 52.1641 23.4698L47.7314 18.0521ZM55.5959 11.6175L47.7314 18.0521L52.1641 23.4698L60.0285 17.0352L55.5959 11.6175ZM59.37 10.0328C58.1894 9.97395 57.2925 10.4124 56.7574 10.746C56.3071 11.0268 55.8563 11.4044 55.5959 11.6175L60.0285 17.0352C60.2047 16.8911 60.3145 16.8015 60.4048 16.7312C60.496 16.6603 60.5031 16.6598 60.4612 16.6859C60.4167 16.7136 60.2545 16.8113 59.9999 16.8947C59.7209 16.986 59.386 17.0423 59.0213 17.0241L59.37 10.0328ZM62.9678 11.9852C62.7298 11.7472 62.3188 11.3266 61.8987 11.0025C61.3995 10.6172 60.5506 10.0917 59.37 10.0328L59.0213 17.0241C58.6567 17.006 58.329 16.9166 58.0605 16.7979C57.8155 16.6897 57.6638 16.5763 57.6223 16.5443C57.5832 16.5141 57.5902 16.5154 57.6739 16.595C57.7567 16.6739 57.8571 16.774 58.018 16.9349L62.9678 11.9852ZM71.0147 20.0321L62.9678 11.9852L58.018 16.9349L66.0649 24.9818L71.0147 20.0321ZM72.967 23.6299C72.9082 22.4493 72.3826 21.6003 71.9974 21.1011C71.6732 20.681 71.2526 20.2701 71.0147 20.0321L66.0649 24.9818C66.2259 25.1428 66.3259 25.2432 66.4048 25.326C66.4845 25.4096 66.4857 25.4167 66.4556 25.3776C66.4235 25.3361 66.3102 25.1844 66.2019 24.9394C66.0832 24.6708 65.9939 24.3432 65.9757 23.9785L72.967 23.6299ZM71.3823 27.404C71.5955 27.1435 71.9731 26.6928 72.2538 26.2425C72.5875 25.7074 73.0259 24.8104 72.967 23.6298L65.9757 23.9785C65.9575 23.6139 66.0138 23.279 66.1052 22.9999C66.1885 22.7454 66.2862 22.5832 66.314 22.5387C66.3401 22.4968 66.3396 22.5039 66.2686 22.5951C66.1984 22.6853 66.1088 22.7952 65.9647 22.9713L71.3823 27.404ZM64.9477 35.2686L71.3824 27.404L65.9647 22.9713L59.53 30.8359L64.9477 35.2686ZM64.1421 34.1715C64.2519 34.4367 64.3233 34.7262 64.3467 35.0267C64.3698 35.3229 64.3426 35.5816 64.2999 35.7867C64.2582 35.9865 64.2022 36.1336 64.1655 36.218C64.1467 36.2616 64.1305 36.294 64.1199 36.3143C64.1093 36.3346 64.1026 36.3458 64.1019 36.347C64.1016 36.3474 64.1167 36.3225 64.1568 36.2658C64.1965 36.2098 64.2512 36.1361 64.3266 36.0388C64.4838 35.836 64.679 35.597 64.9477 35.2686L59.53 30.8359C59.0855 31.3792 58.4901 32.0923 58.0941 32.7545C57.6955 33.421 56.9076 34.9979 57.6749 36.8504L64.1421 34.1715ZM63.936 32.8261C63.5137 32.7839 63.2067 32.753 62.9522 32.7207C62.83 32.7052 62.7393 32.6918 62.6717 32.6802C62.6032 32.6685 62.5749 32.6616 62.5753 32.6617C62.5767 32.662 62.5894 32.6652 62.6112 32.6721C62.6331 32.6789 62.6674 32.6904 62.7116 32.7078C62.7972 32.7417 62.9408 32.806 63.1115 32.9178C63.2869 33.0327 63.4889 33.1964 63.6821 33.4222C63.878 33.6512 64.0322 33.9063 64.1421 34.1716L57.6749 36.8503C58.4422 38.7028 60.1143 39.2607 60.8675 39.4501C61.6158 39.6384 62.5411 39.7216 63.2395 39.7914L63.936 32.8261ZM74.0473 33.8373L63.936 32.8261L63.2395 39.7914L73.3507 40.8025L74.0473 33.8373ZM77.8365 35.3854C77.0433 34.509 76.0991 34.1848 75.4848 34.0424C74.9679 33.9225 74.3821 33.8708 74.0473 33.8373L73.3507 40.8025C73.5772 40.8252 73.7182 40.8395 73.8317 40.8536C73.9464 40.8679 73.9518 40.8726 73.9037 40.8615C73.8526 40.8496 73.6688 40.804 73.4299 40.6829C73.168 40.5503 72.8914 40.3532 72.6464 40.0825L77.8365 35.3854ZM79 39.31C79 38.9734 79.0068 38.3854 78.939 37.8592C78.8584 37.2338 78.6297 36.2619 77.8365 35.3855L72.6464 40.0825C72.4014 39.8118 72.2328 39.5169 72.1269 39.2431C72.0302 38.9933 72.0031 38.8059 71.9964 38.7539C71.9901 38.705 71.9942 38.7108 71.997 38.8263C71.9998 38.9406 72 39.0824 72 39.31H79ZM79 50.69V39.31H72V50.69H79ZM77.8365 54.6145C78.6297 53.7381 78.8584 52.7662 78.939 52.1408C79.0068 51.6146 79 51.0266 79 50.69H72C72 50.9176 71.9998 51.0594 71.997 51.1737C71.9942 51.2892 71.9901 51.295 71.9964 51.2461C72.0031 51.1941 72.0302 51.0067 72.1269 50.7569C72.2328 50.4831 72.4014 50.1882 72.6464 49.9175L77.8365 54.6145ZM74.0473 56.1627C74.3821 56.1292 74.9679 56.0775 75.4848 55.9576C76.0991 55.8152 77.0433 55.491 77.8365 54.6146L72.6464 49.9175C72.8914 49.6468 73.168 49.4497 73.4299 49.3171C73.6688 49.196 73.8526 49.1504 73.9037 49.1385C73.9518 49.1274 73.9464 49.1321 73.8317 49.1464C73.7182 49.1605 73.5772 49.1748 73.3507 49.1975L74.0473 56.1627ZM63.9374 57.1737L74.0473 56.1627L73.3507 49.1975L63.2409 50.2085L63.9374 57.1737ZM64.1435 55.8283C64.0336 56.0935 63.8794 56.3486 63.6835 56.5777C63.4904 56.8035 63.2883 56.9672 63.1129 57.082C62.9422 57.1938 62.7986 57.2582 62.713 57.292C62.6688 57.3095 62.6345 57.321 62.6127 57.3278C62.5908 57.3346 62.5781 57.3378 62.5767 57.3382C62.5763 57.3383 62.6046 57.3313 62.6731 57.3196C62.7407 57.3081 62.8315 57.2946 62.9536 57.2792C63.2081 57.2469 63.5152 57.2159 63.9374 57.1737L63.2409 50.2085C62.5425 50.2783 61.6172 50.3615 60.8689 50.5497C60.1157 50.7392 58.4436 51.2971 57.6763 53.1495L64.1435 55.8283ZM64.9491 54.7313C64.6804 54.4028 64.4852 54.1639 64.328 53.9611C64.2526 53.8637 64.1979 53.7901 64.1583 53.7341C64.1181 53.6774 64.103 53.6525 64.1033 53.6528C64.104 53.654 64.1107 53.6653 64.1213 53.6856C64.1319 53.7059 64.1481 53.7383 64.167 53.7818C64.2036 53.8663 64.2596 54.0133 64.3013 54.2131C64.3441 54.4183 64.3712 54.677 64.3481 54.9732C64.3247 55.2737 64.2533 55.5631 64.1435 55.8283L57.6763 53.1495C56.909 55.002 57.6969 56.5788 58.0955 57.2454C58.4915 57.9076 59.0869 58.6207 59.5314 59.164L64.9491 54.7313ZM71.3825 62.5943L64.9491 54.7313L59.5314 59.164L65.9648 67.027L71.3825 62.5943ZM72.9672 66.3685C73.0261 65.1879 72.5877 64.2909 72.254 63.7559C71.9732 63.3056 71.5956 62.8548 71.3825 62.5943L65.9648 67.027C66.1089 67.2031 66.1985 67.313 66.2688 67.4033C66.3398 67.4944 66.3403 67.5015 66.3142 67.4597C66.2864 67.4151 66.1887 67.253 66.1054 66.9984C66.014 66.7194 65.9577 66.3845 65.9759 66.0198L72.9672 66.3685ZM71.0149 69.9662C71.2528 69.7283 71.6734 69.3173 71.9976 68.8972C72.3828 68.398 72.9083 67.5491 72.9672 66.3684L65.9759 66.0199C65.9941 65.6552 66.0834 65.3275 66.2021 65.059C66.3104 64.8139 66.4237 64.6623 66.4557 64.6208C66.4859 64.5817 66.4847 64.5887 66.405 64.6724C66.3261 64.7552 66.226 64.8556 66.0651 65.0165L71.0149 69.9662ZM62.9679 78.0132L71.0149 69.9662L66.0651 65.0165L58.0182 73.0634L62.9679 78.0132ZM62.9679 78.0132L62.9679 78.0132L58.0182 73.0634L58.0181 73.0634L62.9679 78.0132ZM59.3701 79.9655C60.5508 79.9066 61.3996 79.3811 61.8989 78.9959C62.319 78.6717 62.73 78.2511 62.9679 78.0132L58.0181 73.0634C57.8572 73.2244 57.7569 73.3244 57.674 73.4033C57.5904 73.483 57.5834 73.4842 57.6225 73.454C57.664 73.422 57.8156 73.3087 58.0607 73.2004C58.3292 73.0817 58.6569 72.9924 59.0216 72.9742L59.3701 79.9655ZM55.5961 78.3808C55.8565 78.5939 56.3073 78.9715 56.7576 79.2523C57.2926 79.5859 58.1896 80.0244 59.3702 79.9655L59.0215 72.9742C59.3862 72.956 59.7211 73.0123 60.0001 73.1037C60.2547 73.187 60.4168 73.2847 60.4613 73.3124C60.5032 73.3386 60.4961 73.338 60.405 73.2671C60.3147 73.1968 60.2048 73.1072 60.0287 72.9631L55.5961 78.3808ZM47.7316 71.9463L55.596 78.3808L60.0287 72.9631L52.1642 66.5286L47.7316 71.9463ZM48.8286 71.1406C48.5634 71.2505 48.274 71.3218 47.9735 71.3452C47.6773 71.3683 47.4186 71.3412 47.2134 71.2984C47.0136 71.2567 46.8666 71.2008 46.7821 71.1641C46.7385 71.1452 46.7061 71.1291 46.6859 71.1185C46.6655 71.1078 46.6543 71.1011 46.6531 71.1004C46.6527 71.1002 46.6777 71.1152 46.7344 71.1554C46.7904 71.1951 46.864 71.2497 46.9613 71.3251C47.1641 71.4823 47.4031 71.6775 47.7316 71.9463L52.1642 66.5286C51.621 66.0841 50.9079 65.4886 50.2457 65.0926C49.5791 64.694 48.0022 63.9061 46.1498 64.6735L48.8286 71.1406ZM50.174 70.9346C50.2162 70.5123 50.2472 70.2053 50.2794 69.9507C50.2949 69.8286 50.3083 69.7379 50.3199 69.6702C50.3316 69.6017 50.3386 69.5735 50.3385 69.5739C50.3381 69.5753 50.3349 69.5879 50.3281 69.6098C50.3212 69.6316 50.3097 69.666 50.2923 69.7101C50.2585 69.7958 50.1941 69.9393 50.0823 70.1101C49.9675 70.2854 49.8038 70.4875 49.578 70.6806C49.3489 70.8766 49.0938 71.0308 48.8286 71.1406L46.1498 64.6735C44.2974 65.4408 43.7395 67.1129 43.55 67.8661C43.3618 68.6143 43.2786 69.5396 43.2087 70.2381L50.174 70.9346ZM49.1627 81.0473L50.174 70.9346L43.2087 70.2381L42.1975 80.3507L49.1627 81.0473ZM47.6146 84.8365C48.491 84.0433 48.8152 83.0991 48.9576 82.4848C49.0775 81.9679 49.1292 81.3821 49.1627 81.0473L42.1975 80.3507C42.1748 80.5772 42.1605 80.7182 42.1464 80.8317C42.1321 80.9464 42.1274 80.9518 42.1386 80.9037C42.1504 80.8526 42.196 80.6688 42.3171 80.4299C42.4497 80.168 42.6468 79.8914 42.9175 79.6464L47.6146 84.8365ZM43.69 86C44.0266 86 44.6146 86.0068 45.1408 85.939C45.7662 85.8584 46.7381 85.6297 47.6145 84.8365L42.9175 79.6464C43.1882 79.4014 43.4831 79.2328 43.7569 79.1269C44.0067 79.0302 44.1941 79.0031 44.2461 78.9964C44.295 78.9901 44.2892 78.9942 44.1737 78.997C44.0594 78.9998 43.9176 79 43.69 79V86ZM32.31 86H43.69V79H32.31V86ZM28.3855 84.8365C29.2619 85.6297 30.2338 85.8584 30.8592 85.939C31.3854 86.0068 31.9734 86 32.31 86V79C32.0824 79 31.9406 78.9998 31.8263 78.997C31.7108 78.9942 31.705 78.9901 31.7539 78.9964C31.8059 79.0031 31.9933 79.0302 32.2431 79.1269C32.5169 79.2328 32.8118 79.4014 33.0825 79.6464L28.3855 84.8365ZM26.8373 81.0473C26.8708 81.3821 26.9225 81.9679 27.0424 82.4848C27.1848 83.0991 27.509 84.0433 28.3854 84.8365L33.0825 79.6464C33.3532 79.8914 33.5503 80.168 33.6829 80.4299C33.804 80.6688 33.8496 80.8526 33.8615 80.9037C33.8726 80.9518 33.8679 80.9464 33.8536 80.8317C33.8395 80.7182 33.8252 80.5772 33.8025 80.3507L26.8373 81.0473ZM25.8262 70.9361L26.8373 81.0473L33.8025 80.3507L32.7914 70.2395L25.8262 70.9361ZM27.1716 71.1421C26.9063 71.0322 26.6512 70.878 26.4222 70.6821C26.1964 70.489 26.0327 70.2869 25.9179 70.1116C25.806 69.9408 25.7417 69.7973 25.7078 69.7116C25.6904 69.6674 25.6789 69.6331 25.6721 69.6113C25.6652 69.5894 25.662 69.5767 25.6617 69.5754C25.6616 69.5749 25.6686 69.6032 25.6803 69.6717C25.6918 69.7393 25.7052 69.8301 25.7207 69.9522C25.753 70.2068 25.7839 70.5138 25.8262 70.9361L32.7914 70.2395C32.7216 69.5411 32.6384 68.6158 32.4501 67.8675C32.2607 67.1143 31.7028 65.4422 29.8503 64.6749L27.1716 71.1421ZM28.2686 71.9477C28.597 71.679 28.836 71.4838 29.0388 71.3266C29.1361 71.2512 29.2098 71.1965 29.2658 71.1569C29.3225 71.1167 29.3474 71.1017 29.347 71.1019C29.3458 71.1026 29.3346 71.1093 29.3143 71.1199C29.294 71.1305 29.2616 71.1467 29.218 71.1656C29.1336 71.2022 28.9865 71.2582 28.7867 71.2999C28.5816 71.3427 28.3229 71.3698 28.0267 71.3467C27.7262 71.3233 27.4367 71.2519 27.1715 71.1421L29.8504 64.6749C27.9979 63.9076 26.421 64.6955 25.7545 65.0941C25.0923 65.4901 24.3792 66.0855 23.8359 66.53L28.2686 71.9477ZM20.4038 78.3825L28.2686 71.9477L23.8359 66.53L15.9712 72.9648L20.4038 78.3825ZM16.6297 79.9672C17.8103 80.0261 18.7072 79.5877 19.2423 79.254C19.6926 78.9732 20.1434 78.5956 20.4038 78.3825L15.9712 72.9648C15.795 73.1089 15.6852 73.1985 15.5949 73.2688C15.5037 73.3398 15.4966 73.3403 15.5385 73.3141C15.583 73.2864 15.7452 73.1887 15.9998 73.1054C16.2788 73.014 16.6137 72.9577 16.9784 72.9759L16.6297 79.9672ZM13.0319 78.0149C13.2699 78.2528 13.6809 78.6734 14.101 78.9976C14.6002 79.3828 15.4491 79.9083 16.6297 79.9672L16.9783 72.9759C17.343 72.9941 17.6707 73.0834 17.9392 73.2021C18.1842 73.3104 18.3359 73.4237 18.3774 73.4557C18.4165 73.4859 18.4095 73.4847 18.3258 73.405C18.243 73.3261 18.1426 73.226 17.9817 73.0651L13.0319 78.0149ZM4.98502 69.9679L13.0319 78.0149L17.9817 73.0651L9.93476 65.0182L4.98502 69.9679ZM3.03266 66.3702C3.09154 67.5508 3.61706 68.3997 4.00229 68.8989C4.32647 69.319 4.74706 69.73 4.98502 69.9679L9.93476 65.0182C9.77385 64.8573 9.67375 64.7569 9.59486 64.674C9.51518 64.5904 9.51397 64.5834 9.54412 64.6224C9.57617 64.664 9.6895 64.8156 9.79778 65.0606C9.91644 65.3292 10.0058 65.6568 10.024 66.0215L3.03266 66.3702ZM4.61734 62.596C4.40424 62.8565 4.02663 63.3073 3.74586 63.7576C3.41222 64.2926 2.97377 65.1896 3.03266 66.3702L10.024 66.0215C10.0422 66.3862 9.98587 66.7211 9.89451 67.0001C9.81115 67.2547 9.71347 67.4168 9.68572 67.4614C9.6596 67.5032 9.66011 67.4961 9.73107 67.405C9.80133 67.3147 9.89094 67.2048 10.035 67.0287L4.61734 62.596ZM11.052 54.7314L4.61734 62.596L10.035 67.0287L16.4697 59.1641L11.052 54.7314ZM11.8577 55.8284C11.7478 55.5632 11.6765 55.2738 11.6531 54.9733C11.63 54.6771 11.6571 54.4184 11.6999 54.2132C11.7416 54.0134 11.7976 53.8664 11.8342 53.7819C11.8531 53.7384 11.8692 53.706 11.8799 53.6857C11.8905 53.6654 11.8972 53.6542 11.8979 53.6529C11.8981 53.6526 11.8831 53.6775 11.8429 53.7342C11.8033 53.7902 11.7486 53.8639 11.6732 53.9612C11.516 54.164 11.3208 54.403 11.052 54.7314L16.4697 59.1641C16.9142 58.6208 17.5097 57.9077 17.9057 57.2455C18.3043 56.5789 19.0922 55.0021 18.3249 53.1497L11.8577 55.8284ZM12.0637 57.1738C12.486 57.2161 12.793 57.247 13.0476 57.2793C13.1697 57.2947 13.2605 57.3082 13.3281 57.3197C13.3966 57.3314 13.4248 57.3384 13.4244 57.3383C13.4231 57.338 13.4104 57.3348 13.3885 57.3279C13.3667 57.3211 13.3323 57.3096 13.2882 57.2921C13.2025 57.2583 13.059 57.1939 12.8882 57.0821C12.7129 56.9673 12.5108 56.8036 12.3177 56.5778C12.1218 56.3488 11.9675 56.0936 11.8577 55.8284L18.3249 53.1497C17.5575 51.2972 15.8854 50.7393 15.1322 50.5498C14.384 50.3616 13.4587 50.2784 12.7602 50.2086L12.0637 57.1738ZM1.95273 56.1627L12.0637 57.1738L12.7602 50.2086L2.64925 49.1975L1.95273 56.1627ZM-1.83653 54.6145C-1.04335 55.491 -0.0990811 55.8152 0.515179 55.9576C1.03211 56.0775 1.61787 56.1292 1.95272 56.1627L2.64926 49.1975C2.42282 49.1748 2.28178 49.1605 2.16827 49.1464C2.05363 49.1321 2.04824 49.1274 2.09632 49.1385C2.14742 49.1504 2.33116 49.196 2.57011 49.3171C2.83199 49.4497 3.10863 49.6468 3.35363 49.9175L-1.83653 54.6145ZM-3 50.69C-3 51.0265 -3.0068 51.6146 -2.93897 52.1408C-2.85837 52.7662 -2.62972 53.7381 -1.83653 54.6145L3.35363 49.9175C3.59863 50.1882 3.76715 50.4831 3.87312 50.7569C3.96981 51.0067 3.9969 51.194 4.00361 51.2461C4.00992 51.295 4.00582 51.2892 4.003 51.1737C4.00021 51.0594 4 50.9176 4 50.69H-3ZM-3 39.31L-3 50.69L4 50.69L4 39.31L-3 39.31ZM-1.83653 35.3855C-2.62972 36.2619 -2.85837 37.2338 -2.93897 37.8592C-3.0068 38.3854 -3 38.9734 -3 39.31H4C4 39.0824 4.00021 38.9406 4.003 38.8263C4.00582 38.7108 4.00992 38.705 4.00361 38.7539C3.9969 38.8059 3.96981 38.9933 3.87312 39.2431C3.76715 39.5169 3.59863 39.8118 3.35363 40.0825L-1.83653 35.3855ZM1.95273 33.8373C1.61787 33.8708 1.03211 33.9225 0.515181 34.0424C-0.0990775 34.1848 -1.04335 34.509 -1.83653 35.3855L3.35363 40.0825C3.10863 40.3532 2.83199 40.5502 2.57011 40.6829C2.33116 40.804 2.14742 40.8496 2.09632 40.8614C2.04824 40.8726 2.05363 40.8679 2.16827 40.8536C2.28178 40.8395 2.42283 40.8252 2.64926 40.8025L1.95273 33.8373ZM12.0651 32.826L1.95273 33.8373L2.64926 40.8025L12.7617 39.7913L12.0651 32.826ZM11.8591 34.1714C11.969 33.9062 12.1232 33.6511 12.3191 33.422C12.5122 33.1963 12.7143 33.0325 12.8897 32.9177C13.0604 32.8059 13.2039 32.7415 13.2896 32.7077C13.3338 32.6903 13.3681 32.6788 13.3899 32.6719C13.4118 32.6651 13.4245 32.6619 13.4258 32.6615C13.4263 32.6614 13.398 32.6684 13.3295 32.6801C13.2619 32.6917 13.1711 32.7051 13.049 32.7206C12.7944 32.7528 12.4874 32.7838 12.0651 32.826L12.7617 39.7913C13.4601 39.7214 14.3854 39.6383 15.1336 39.45C15.8868 39.2605 17.5589 38.7026 18.3263 36.8502L11.8591 34.1714ZM11.0534 35.2684C11.3222 35.5969 11.5174 35.8359 11.6746 36.0387C11.75 36.136 11.8047 36.2097 11.8443 36.2657C11.8845 36.3224 11.8995 36.3473 11.8993 36.3469C11.8986 36.3457 11.8919 36.3345 11.8813 36.3142C11.8707 36.2939 11.8545 36.2615 11.8356 36.2179C11.799 36.1334 11.743 35.9864 11.7013 35.7866C11.6585 35.5815 11.6314 35.3228 11.6545 35.0266C11.6779 34.7261 11.7492 34.4366 11.8591 34.1714L18.3263 36.8502C19.0936 34.9978 18.3057 33.4209 17.9071 32.7543C17.5111 32.0922 16.9156 31.379 16.4712 30.8358L11.0534 35.2684ZM4.61751 27.4023L11.0534 35.2684L16.4711 30.8358L10.0352 22.9696L4.61751 27.4023ZM3.03283 23.6281C2.97395 24.8087 3.41239 25.7057 3.74603 26.2408C4.0268 26.6911 4.40441 27.1418 4.61751 27.4023L10.0352 22.9696C9.89111 22.7935 9.8015 22.6836 9.73124 22.5934C9.66029 22.5022 9.65977 22.4951 9.68589 22.537C9.71365 22.5815 9.81132 22.7437 9.89468 22.9982C9.98604 23.2772 10.0423 23.6122 10.0241 23.9768L3.03283 23.6281ZM4.98519 20.0304C4.74723 20.2684 4.32664 20.6793 4.00246 21.0994C3.61723 21.5986 3.09172 22.4475 3.03283 23.6281L10.0241 23.9768C10.006 24.3415 9.91662 24.6692 9.79795 24.9377C9.68967 25.1827 9.57635 25.3344 9.5443 25.3759C9.51415 25.415 9.51536 25.4079 9.59504 25.3243C9.67393 25.2415 9.77402 25.1411 9.93494 24.9801L4.98519 20.0304ZM13.0321 11.9835L4.98519 20.0304L9.93494 24.9801L17.9818 16.9332L13.0321 11.9835ZM16.6298 10.0311C15.4492 10.09 14.6003 10.6155 14.1011 11.0008C13.681 11.3249 13.2701 11.7455 13.0321 11.9835L17.9818 16.9332C18.1428 16.7723 18.2432 16.6722 18.326 16.5933C18.4096 16.5137 18.4167 16.5124 18.3776 16.5426C18.3361 16.5746 18.1844 16.688 17.9394 16.7962C17.6709 16.9149 17.3432 17.0043 16.9785 17.0224L16.6298 10.0311ZM20.404 11.6158C20.1435 11.4027 19.6928 11.0251 19.2425 10.7443C18.7074 10.4107 17.8104 9.97225 16.6298 10.0311L16.9785 17.0224C16.6139 17.0406 16.2789 16.9843 15.9999 16.893C15.7454 16.8096 15.5832 16.7119 15.5387 16.6842C15.4968 16.6581 15.5039 16.6586 15.5951 16.7295C15.6853 16.7998 15.7952 16.8894 15.9713 17.0335L20.404 11.6158ZM28.2687 18.0506L20.404 11.6158L15.9713 17.0335L23.8361 23.4683L28.2687 18.0506ZM27.1717 18.8562C27.4369 18.7464 27.7264 18.675 28.0269 18.6516C28.3231 18.6285 28.5817 18.6557 28.7869 18.6985C28.9867 18.7401 29.1337 18.7961 29.2182 18.8328C29.2618 18.8517 29.2942 18.8678 29.3145 18.8784C29.3348 18.889 29.346 18.8957 29.3472 18.8965C29.3476 18.8967 29.3227 18.8816 29.2659 18.8415C29.21 18.8018 29.1363 18.7471 29.039 18.6717C28.8362 18.5145 28.5972 18.3193 28.2687 18.0506L23.8361 23.4683C24.3793 23.9128 25.0924 24.5083 25.7546 24.9042C26.4212 25.3028 27.9981 26.0907 29.8505 25.3234L27.1717 18.8562ZM25.8263 19.0623C25.7841 19.4846 25.7531 19.7916 25.7209 20.0461C25.7054 20.1683 25.692 20.259 25.6804 20.3266C25.6687 20.3951 25.6617 20.4234 25.6618 20.423C25.6622 20.4216 25.6654 20.409 25.6722 20.3871C25.6791 20.3652 25.6906 20.3309 25.708 20.2867C25.7418 20.2011 25.8062 20.0575 25.918 19.8868C26.0328 19.7115 26.1966 19.5094 26.4223 19.3163C26.6514 19.1203 26.9065 18.9661 27.1717 18.8563L29.8505 25.3234C31.7029 24.5561 32.2608 22.884 32.4503 22.1308C32.6386 21.3826 32.7217 20.4573 32.7916 19.7588L25.8263 19.0623ZM26.8373 8.95273L25.8263 19.0623L32.7916 19.7588L33.8025 9.64925L26.8373 8.95273ZM28.3855 5.16347C27.509 5.95665 27.1848 6.90092 27.0424 7.51518C26.9225 8.03211 26.8708 8.61787 26.8373 8.95273L33.8025 9.64926C33.8252 9.42283 33.8395 9.28178 33.8536 9.16827C33.8679 9.05363 33.8726 9.04824 33.8615 9.09632C33.8496 9.14742 33.804 9.33116 33.6829 9.57011C33.5503 9.83199 33.3532 10.1086 33.0825 10.3536L28.3855 5.16347ZM32.31 4C31.9734 4 31.3854 3.9932 30.8592 4.06103C30.2338 4.14163 29.2619 4.37028 28.3855 5.16347L33.0825 10.3536C32.8118 10.5986 32.5169 10.7672 32.2431 10.8731C31.9933 10.9698 31.8059 10.9969 31.7539 11.0036C31.705 11.0099 31.7108 11.0058 31.8263 11.003C31.9406 11.0002 32.0824 11 32.31 11V4ZM43.69 4H32.31V11H43.69V4ZM47.6145 5.16347C46.7381 4.37028 45.7662 4.14163 45.1408 4.06103C44.6146 3.9932 44.0266 4 43.69 4V11C43.9176 11 44.0594 11.0002 44.1737 11.003C44.2892 11.0058 44.295 11.0099 44.2461 11.0036C44.1941 10.9969 44.0067 10.9698 43.7569 10.8731C43.4831 10.7672 43.1882 10.5986 42.9175 10.3536L47.6145 5.16347ZM49.5 45C49.5 51.3513 44.3513 56.5 38 56.5V63.5C48.2173 63.5 56.5 55.2173 56.5 45H49.5ZM38 33.5C44.3513 33.5 49.5 38.6487 49.5 45H56.5C56.5 34.7827 48.2173 26.5 38 26.5V33.5ZM26.5 45C26.5 38.6487 31.6487 33.5 38 33.5V26.5C27.7827 26.5 19.5 34.7827 19.5 45H26.5ZM38 56.5C31.6487 56.5 26.5 51.3513 26.5 45H19.5C19.5 55.2173 27.7827 63.5 38 63.5V56.5Z" fill="white"/>
</svg>
