<svg width="90" height="90" viewBox="0 0 90 90" fill="none" xmlns="http://www.w3.org/2000/svg">
<rect width="90" height="90"/>
<path d="M52.6801 9.30099L56.1627 8.95273L56.1627 8.95273L52.6801 9.30099ZM52.266 7.75855L54.6145 5.16347L54.6145 5.16347L52.266 7.75855ZM53.6912 19.412L57.1738 19.0637L57.1738 19.0637L53.6912 19.412ZM56.9478 20.7609L54.7314 18.0521L54.7314 18.0521L56.9478 20.7609ZM64.8122 14.3264L67.0285 17.0352L67.0285 17.0352L64.8122 14.3264ZM66.1957 13.5285L66.0213 17.0241L66.0213 17.0241L66.1957 13.5285ZM67.4929 14.4601L65.018 16.9349L65.018 16.9349L67.4929 14.4601ZM75.5398 22.507L78.0147 20.0321L78.0147 20.0321L75.5398 22.507ZM76.4714 23.8042L72.9757 23.9785L72.9757 23.9785L76.4714 23.8042ZM75.6735 25.1877L72.9647 22.9713L72.9647 22.9713L75.6735 25.1877ZM69.2389 33.0522L71.9477 35.2686L71.9477 35.2686L69.2389 33.0522ZM67.9085 35.5109L71.1421 34.1716L71.1421 34.1715L67.9085 35.5109ZM70.5878 36.3088L70.936 32.8261L70.936 32.8261L70.5878 36.3088ZM80.699 37.3199L81.0473 33.8373L81.0473 33.8373L80.699 37.3199ZM82.2415 37.734L84.8365 35.3855L84.8365 35.3854L82.2415 37.734ZM82.2415 52.266L84.8365 54.6146L84.8365 54.6145L82.2415 52.266ZM80.699 52.6801L81.0473 56.1627L81.0473 56.1627L80.699 52.6801ZM70.5892 53.6911L70.9374 57.1737L70.9374 57.1737L70.5892 53.6911ZM67.9099 54.4889L71.1435 55.8283L71.1435 55.8283L67.9099 54.4889ZM69.2403 56.9476L66.5314 59.164L66.5314 59.164L69.2403 56.9476ZM75.6737 64.8107L72.9648 67.027L72.9648 67.027L75.6737 64.8107ZM76.4716 66.1942L72.9759 66.0198L72.9759 66.0199L76.4716 66.1942ZM75.54 67.4914L78.0149 69.9662L78.0149 69.9662L75.54 67.4914ZM67.4931 75.5383L65.0182 73.0634L65.0182 73.0634L67.4931 75.5383ZM66.1959 76.4698L66.0216 72.9742L66.0215 72.9742L66.1959 76.4698ZM64.8124 75.672L62.596 78.3808L62.5961 78.3808L64.8124 75.672ZM56.9479 69.2374L59.1642 66.5286L59.1642 66.5286L56.9479 69.2374ZM54.4892 67.907L55.8286 71.1406L55.8286 71.1406L54.4892 67.907ZM53.6914 70.5863L57.174 70.9346L57.174 70.9346L53.6914 70.5863ZM52.6801 80.699L56.1627 81.0473L56.1627 81.0473L52.6801 80.699ZM52.266 82.2415L54.6145 84.8365L54.6146 84.8365L52.266 82.2415ZM37.734 82.2415L35.3854 84.8365L35.3855 84.8365L37.734 82.2415ZM37.3199 80.699L33.8373 81.0473L33.8373 81.0473L37.3199 80.699ZM36.3088 70.5878L32.8262 70.9361L32.8262 70.9361L36.3088 70.5878ZM35.5109 67.9085L34.1715 71.1421L34.1716 71.1421L35.5109 67.9085ZM33.0522 69.2389L30.8359 66.53L30.8359 66.53L33.0522 69.2389ZM25.1875 75.6737L22.9712 72.9648L22.9712 72.9648L25.1875 75.6737ZM23.804 76.4715L23.9784 72.9759L23.9783 72.9759L23.804 76.4715ZM22.5068 75.54L20.0319 78.0149L20.0319 78.0149L22.5068 75.54ZM14.4599 67.4931L16.9348 65.0182L16.9348 65.0182L14.4599 67.4931ZM13.5283 66.1959L17.024 66.0215L17.024 66.0215L13.5283 66.1959ZM14.3262 64.8124L11.6173 62.596L11.6173 62.596L14.3262 64.8124ZM20.7609 56.9477L18.052 54.7314L18.052 54.7314L20.7609 56.9477ZM19.412 53.6912L19.0637 57.1738L19.0637 57.1738L19.412 53.6912ZM9.30099 52.6801L8.95272 56.1627L8.95273 56.1627L9.30099 52.6801ZM7.5 50.69L4 50.69V50.69H7.5ZM7.5 39.31L11 39.31V39.31H7.5ZM9.30099 37.3199L8.95273 33.8373L8.95273 33.8373L9.30099 37.3199ZM19.4134 36.3087L19.0651 32.826L19.0651 32.826L19.4134 36.3087ZM22.0927 35.5108L25.3263 36.8502L25.3263 36.8502L22.0927 35.5108ZM20.7623 33.0521L23.4712 30.8358L23.4711 30.8358L20.7623 33.0521ZM14.3264 25.186L17.0352 22.9696L17.0352 22.9696L14.3264 25.186ZM13.5285 23.8025L17.0241 23.9768L17.0241 23.9768L13.5285 23.8025ZM22.507 14.4584L24.9818 16.9332L24.9818 16.9332L22.507 14.4584ZM23.8042 13.5268L23.9785 17.0224L23.9785 17.0224L23.8042 13.5268ZM25.1877 14.3247L22.9713 17.0335L22.9713 17.0335L25.1877 14.3247ZM33.0524 20.7594L35.2687 18.0506L35.2687 18.0506L33.0524 20.7594ZM35.5111 22.0898L36.8505 25.3234L36.8505 25.3234L35.5111 22.0898ZM36.3089 19.4105L32.8263 19.0623L32.8263 19.0623L36.3089 19.4105ZM37.3199 9.30099L33.8373 8.95273L33.8373 8.95273L37.3199 9.30099ZM37.734 7.75855L35.3855 5.16347L35.3855 5.16347L37.734 7.75855ZM56.1627 8.95273C56.1292 8.61787 56.0775 8.03211 55.9576 7.51518C55.8152 6.90092 55.491 5.95665 54.6145 5.16347L49.9175 10.3536C49.6468 10.1086 49.4498 9.83199 49.3171 9.57011C49.196 9.33116 49.1504 9.14742 49.1386 9.09632C49.1274 9.04824 49.1321 9.05363 49.1464 9.16827C49.1605 9.28178 49.1748 9.42283 49.1975 9.64926L56.1627 8.95273ZM57.1738 19.0637L56.1627 8.95273L49.1975 9.64926L50.2086 19.7603L57.1738 19.0637ZM55.8284 18.8577C56.0936 18.9676 56.3488 19.1218 56.5778 19.3177C56.8036 19.5109 56.9673 19.7129 57.0821 19.8883C57.1939 20.059 57.2583 20.2026 57.2921 20.2882C57.3096 20.3324 57.3211 20.3667 57.3279 20.3885C57.3348 20.4104 57.338 20.4231 57.3383 20.4245C57.3384 20.4249 57.3314 20.3966 57.3197 20.3281C57.3082 20.2605 57.2947 20.1697 57.2793 20.0476C57.247 19.7931 57.2161 19.486 57.1738 19.0637L50.2086 19.7603C50.2784 20.4587 50.3616 21.384 50.5498 22.1323C50.7393 22.8855 51.2972 24.5576 53.1497 25.3249L55.8284 18.8577ZM54.7314 18.0521C54.403 18.3208 54.164 18.516 53.9612 18.6732C53.8639 18.7486 53.7902 18.8033 53.7342 18.8429C53.6775 18.8831 53.6526 18.8981 53.6529 18.8979C53.6542 18.8972 53.6654 18.8905 53.6857 18.8799C53.706 18.8693 53.7384 18.8531 53.7819 18.8342C53.8664 18.7976 54.0134 18.7416 54.2132 18.6999C54.4184 18.6571 54.6771 18.63 54.9733 18.6531C55.2738 18.6765 55.5632 18.7479 55.8284 18.8577L53.1497 25.3249C55.0021 26.0922 56.5789 25.3043 57.2455 24.9057C57.9077 24.5097 58.6208 23.9143 59.1641 23.4698L54.7314 18.0521ZM62.5959 11.6175L54.7314 18.0521L59.1641 23.4698L67.0285 17.0352L62.5959 11.6175ZM66.37 10.0328C65.1894 9.97395 64.2925 10.4124 63.7574 10.746C63.3071 11.0268 62.8563 11.4044 62.5959 11.6175L67.0285 17.0352C67.2047 16.8911 67.3145 16.8015 67.4048 16.7312C67.496 16.6603 67.5031 16.6598 67.4612 16.6859C67.4167 16.7136 67.2545 16.8113 66.9999 16.8947C66.7209 16.986 66.386 17.0423 66.0213 17.0241L66.37 10.0328ZM69.9678 11.9852C69.7298 11.7472 69.3188 11.3266 68.8987 11.0025C68.3995 10.6172 67.5506 10.0917 66.37 10.0328L66.0213 17.0241C65.6567 17.006 65.329 16.9166 65.0605 16.7979C64.8155 16.6897 64.6638 16.5763 64.6223 16.5443C64.5832 16.5141 64.5902 16.5154 64.6739 16.595C64.7567 16.6739 64.8571 16.774 65.018 16.9349L69.9678 11.9852ZM78.0147 20.0321L69.9678 11.9852L65.018 16.9349L73.0649 24.9818L78.0147 20.0321ZM79.967 23.6299C79.9082 22.4493 79.3826 21.6003 78.9974 21.1011C78.6732 20.681 78.2526 20.2701 78.0147 20.0321L73.0649 24.9818C73.2259 25.1428 73.3259 25.2432 73.4048 25.326C73.4845 25.4096 73.4857 25.4167 73.4556 25.3776C73.4235 25.3361 73.3102 25.1844 73.2019 24.9394C73.0832 24.6708 72.9939 24.3432 72.9757 23.9785L79.967 23.6299ZM78.3823 27.404C78.5955 27.1435 78.9731 26.6928 79.2538 26.2425C79.5875 25.7074 80.0259 24.8104 79.967 23.6298L72.9757 23.9785C72.9575 23.6139 73.0138 23.279 73.1052 22.9999C73.1885 22.7454 73.2862 22.5832 73.314 22.5387C73.3401 22.4968 73.3396 22.5039 73.2686 22.5951C73.1984 22.6853 73.1088 22.7952 72.9647 22.9713L78.3823 27.404ZM71.9477 35.2686L78.3824 27.404L72.9647 22.9713L66.53 30.8359L71.9477 35.2686ZM71.1421 34.1715C71.2519 34.4367 71.3233 34.7262 71.3467 35.0267C71.3698 35.3229 71.3426 35.5816 71.2999 35.7867C71.2582 35.9865 71.2022 36.1336 71.1655 36.218C71.1467 36.2616 71.1305 36.294 71.1199 36.3143C71.1093 36.3346 71.1026 36.3458 71.1019 36.347C71.1016 36.3474 71.1167 36.3225 71.1568 36.2658C71.1965 36.2098 71.2512 36.1361 71.3266 36.0388C71.4838 35.836 71.679 35.597 71.9477 35.2686L66.53 30.8359C66.0855 31.3792 65.4901 32.0923 65.0941 32.7545C64.6955 33.421 63.9076 34.9979 64.6749 36.8504L71.1421 34.1715ZM70.936 32.8261C70.5137 32.7839 70.2067 32.753 69.9522 32.7207C69.83 32.7052 69.7393 32.6918 69.6717 32.6802C69.6032 32.6685 69.5749 32.6616 69.5753 32.6617C69.5767 32.662 69.5894 32.6652 69.6112 32.6721C69.6331 32.6789 69.6674 32.6904 69.7116 32.7078C69.7972 32.7417 69.9408 32.806 70.1115 32.9178C70.2869 33.0327 70.4889 33.1964 70.6821 33.4222C70.878 33.6512 71.0322 33.9063 71.1421 34.1716L64.6749 36.8503C65.4422 38.7028 67.1143 39.2607 67.8675 39.4501C68.6158 39.6384 69.5411 39.7216 70.2395 39.7914L70.936 32.8261ZM81.0473 33.8373L70.936 32.8261L70.2395 39.7914L80.3507 40.8025L81.0473 33.8373ZM84.8365 35.3854C84.0433 34.509 83.0991 34.1848 82.4848 34.0424C81.9679 33.9225 81.3821 33.8708 81.0473 33.8373L80.3507 40.8025C80.5772 40.8252 80.7182 40.8395 80.8317 40.8536C80.9464 40.8679 80.9518 40.8726 80.9037 40.8615C80.8526 40.8496 80.6688 40.804 80.4299 40.6829C80.168 40.5503 79.8914 40.3532 79.6464 40.0825L84.8365 35.3854ZM86 39.31C86 38.9734 86.0068 38.3854 85.939 37.8592C85.8584 37.2338 85.6297 36.2619 84.8365 35.3855L79.6464 40.0825C79.4014 39.8118 79.2328 39.5169 79.1269 39.2431C79.0302 38.9933 79.0031 38.8059 78.9964 38.7539C78.9901 38.705 78.9942 38.7108 78.997 38.8263C78.9998 38.9406 79 39.0824 79 39.31H86ZM86 50.69V39.31H79V50.69H86ZM84.8365 54.6145C85.6297 53.7381 85.8584 52.7662 85.939 52.1408C86.0068 51.6146 86 51.0266 86 50.69H79C79 50.9176 78.9998 51.0594 78.997 51.1737C78.9942 51.2892 78.9901 51.295 78.9964 51.2461C79.0031 51.1941 79.0302 51.0067 79.1269 50.7569C79.2328 50.4831 79.4014 50.1882 79.6464 49.9175L84.8365 54.6145ZM81.0473 56.1627C81.3821 56.1292 81.9679 56.0775 82.4848 55.9576C83.0991 55.8152 84.0433 55.491 84.8365 54.6146L79.6464 49.9175C79.8914 49.6468 80.168 49.4497 80.4299 49.3171C80.6688 49.196 80.8526 49.1504 80.9037 49.1385C80.9518 49.1274 80.9464 49.1321 80.8317 49.1464C80.7182 49.1605 80.5772 49.1748 80.3507 49.1975L81.0473 56.1627ZM70.9374 57.1737L81.0473 56.1627L80.3507 49.1975L70.2409 50.2085L70.9374 57.1737ZM71.1435 55.8283C71.0336 56.0935 70.8794 56.3486 70.6835 56.5777C70.4904 56.8035 70.2883 56.9672 70.1129 57.082C69.9422 57.1938 69.7986 57.2582 69.713 57.292C69.6688 57.3095 69.6345 57.321 69.6127 57.3278C69.5908 57.3346 69.5781 57.3378 69.5767 57.3382C69.5763 57.3383 69.6046 57.3313 69.6731 57.3196C69.7407 57.3081 69.8315 57.2946 69.9536 57.2792C70.2081 57.2469 70.5152 57.2159 70.9374 57.1737L70.2409 50.2085C69.5425 50.2783 68.6172 50.3615 67.8689 50.5497C67.1157 50.7392 65.4436 51.2971 64.6763 53.1495L71.1435 55.8283ZM71.9491 54.7313C71.6804 54.4028 71.4852 54.1639 71.328 53.9611C71.2526 53.8637 71.1979 53.7901 71.1583 53.7341C71.1181 53.6774 71.103 53.6525 71.1033 53.6528C71.104 53.654 71.1107 53.6653 71.1213 53.6856C71.1319 53.7059 71.1481 53.7383 71.167 53.7818C71.2036 53.8663 71.2596 54.0133 71.3013 54.2131C71.3441 54.4183 71.3712 54.677 71.3481 54.9732C71.3247 55.2737 71.2533 55.5631 71.1435 55.8283L64.6763 53.1495C63.909 55.002 64.6969 56.5788 65.0955 57.2454C65.4915 57.9076 66.0869 58.6207 66.5314 59.164L71.9491 54.7313ZM78.3825 62.5943L71.9491 54.7313L66.5314 59.164L72.9648 67.027L78.3825 62.5943ZM79.9672 66.3685C80.0261 65.1879 79.5877 64.2909 79.254 63.7559C78.9732 63.3056 78.5956 62.8548 78.3825 62.5943L72.9648 67.027C73.1089 67.2031 73.1985 67.313 73.2688 67.4033C73.3398 67.4944 73.3403 67.5015 73.3142 67.4597C73.2864 67.4151 73.1887 67.253 73.1054 66.9984C73.014 66.7194 72.9577 66.3845 72.9759 66.0198L79.9672 66.3685ZM78.0149 69.9662C78.2528 69.7283 78.6734 69.3173 78.9976 68.8972C79.3828 68.398 79.9083 67.5491 79.9672 66.3684L72.9759 66.0199C72.9941 65.6552 73.0834 65.3275 73.2021 65.059C73.3104 64.8139 73.4237 64.6623 73.4557 64.6208C73.4859 64.5817 73.4847 64.5887 73.405 64.6724C73.3261 64.7552 73.226 64.8556 73.0651 65.0165L78.0149 69.9662ZM69.9679 78.0132L78.0149 69.9662L73.0651 65.0165L65.0182 73.0634L69.9679 78.0132ZM69.9679 78.0132L69.9679 78.0132L65.0182 73.0634L65.0181 73.0634L69.9679 78.0132ZM66.3701 79.9655C67.5508 79.9066 68.3996 79.3811 68.8989 78.9959C69.319 78.6717 69.73 78.2511 69.9679 78.0132L65.0181 73.0634C64.8572 73.2244 64.7569 73.3244 64.674 73.4033C64.5904 73.483 64.5834 73.4842 64.6225 73.454C64.664 73.422 64.8156 73.3087 65.0607 73.2004C65.3292 73.0817 65.6569 72.9924 66.0216 72.9742L66.3701 79.9655ZM62.5961 78.3808C62.8565 78.5939 63.3073 78.9715 63.7576 79.2523C64.2926 79.5859 65.1896 80.0244 66.3702 79.9655L66.0215 72.9742C66.3862 72.956 66.7211 73.0123 67.0001 73.1037C67.2547 73.187 67.4168 73.2847 67.4613 73.3124C67.5032 73.3386 67.4961 73.338 67.405 73.2671C67.3147 73.1968 67.2048 73.1072 67.0287 72.9631L62.5961 78.3808ZM54.7316 71.9463L62.596 78.3808L67.0287 72.9631L59.1642 66.5286L54.7316 71.9463ZM55.8286 71.1406C55.5634 71.2505 55.274 71.3218 54.9735 71.3452C54.6773 71.3683 54.4186 71.3412 54.2134 71.2984C54.0136 71.2567 53.8666 71.2008 53.7821 71.1641C53.7385 71.1452 53.7061 71.1291 53.6859 71.1185C53.6655 71.1078 53.6543 71.1011 53.6531 71.1004C53.6527 71.1002 53.6777 71.1152 53.7344 71.1554C53.7904 71.1951 53.864 71.2497 53.9613 71.3251C54.1641 71.4823 54.4031 71.6775 54.7316 71.9463L59.1642 66.5286C58.621 66.0841 57.9079 65.4886 57.2457 65.0926C56.5791 64.694 55.0022 63.9061 53.1498 64.6735L55.8286 71.1406ZM57.174 70.9346C57.2162 70.5123 57.2472 70.2053 57.2794 69.9507C57.2949 69.8286 57.3083 69.7379 57.3199 69.6702C57.3316 69.6017 57.3386 69.5735 57.3385 69.5739C57.3381 69.5753 57.3349 69.5879 57.3281 69.6098C57.3212 69.6316 57.3097 69.666 57.2923 69.7101C57.2585 69.7958 57.1941 69.9393 57.0823 70.1101C56.9675 70.2854 56.8038 70.4875 56.578 70.6806C56.3489 70.8766 56.0938 71.0308 55.8286 71.1406L53.1498 64.6735C51.2974 65.4408 50.7395 67.1129 50.55 67.8661C50.3618 68.6143 50.2786 69.5396 50.2087 70.2381L57.174 70.9346ZM56.1627 81.0473L57.174 70.9346L50.2087 70.2381L49.1975 80.3507L56.1627 81.0473ZM54.6146 84.8365C55.491 84.0433 55.8152 83.0991 55.9576 82.4848C56.0775 81.9679 56.1292 81.3821 56.1627 81.0473L49.1975 80.3507C49.1748 80.5772 49.1605 80.7182 49.1464 80.8317C49.1321 80.9464 49.1274 80.9518 49.1386 80.9037C49.1504 80.8526 49.196 80.6688 49.3171 80.4299C49.4497 80.168 49.6468 79.8914 49.9175 79.6464L54.6146 84.8365ZM50.69 86C51.0266 86 51.6146 86.0068 52.1408 85.939C52.7662 85.8584 53.7381 85.6297 54.6145 84.8365L49.9175 79.6464C50.1882 79.4014 50.4831 79.2328 50.7569 79.1269C51.0067 79.0302 51.1941 79.0031 51.2461 78.9964C51.295 78.9901 51.2892 78.9942 51.1737 78.997C51.0594 78.9998 50.9176 79 50.69 79V86ZM39.31 86H50.69V79H39.31V86ZM35.3855 84.8365C36.2619 85.6297 37.2338 85.8584 37.8592 85.939C38.3854 86.0068 38.9734 86 39.31 86V79C39.0824 79 38.9406 78.9998 38.8263 78.997C38.7108 78.9942 38.705 78.9901 38.7539 78.9964C38.8059 79.0031 38.9933 79.0302 39.2431 79.1269C39.5169 79.2328 39.8118 79.4014 40.0825 79.6464L35.3855 84.8365ZM33.8373 81.0473C33.8708 81.3821 33.9225 81.9679 34.0424 82.4848C34.1848 83.0991 34.509 84.0433 35.3854 84.8365L40.0825 79.6464C40.3532 79.8914 40.5503 80.168 40.6829 80.4299C40.804 80.6688 40.8496 80.8526 40.8615 80.9037C40.8726 80.9518 40.8679 80.9464 40.8536 80.8317C40.8395 80.7182 40.8252 80.5772 40.8025 80.3507L33.8373 81.0473ZM32.8262 70.9361L33.8373 81.0473L40.8025 80.3507L39.7914 70.2395L32.8262 70.9361ZM34.1716 71.1421C33.9063 71.0322 33.6512 70.878 33.4222 70.6821C33.1964 70.489 33.0327 70.2869 32.9179 70.1116C32.806 69.9408 32.7417 69.7973 32.7078 69.7116C32.6904 69.6674 32.6789 69.6331 32.6721 69.6113C32.6652 69.5894 32.662 69.5767 32.6617 69.5754C32.6616 69.5749 32.6686 69.6032 32.6803 69.6717C32.6918 69.7393 32.7052 69.8301 32.7207 69.9522C32.753 70.2068 32.7839 70.5138 32.8262 70.9361L39.7914 70.2395C39.7216 69.5411 39.6384 68.6158 39.4501 67.8675C39.2607 67.1143 38.7028 65.4422 36.8503 64.6749L34.1716 71.1421ZM35.2686 71.9477C35.597 71.679 35.836 71.4838 36.0388 71.3266C36.1361 71.2512 36.2098 71.1965 36.2658 71.1569C36.3225 71.1167 36.3474 71.1017 36.347 71.1019C36.3458 71.1026 36.3346 71.1093 36.3143 71.1199C36.294 71.1305 36.2616 71.1467 36.218 71.1656C36.1336 71.2022 35.9865 71.2582 35.7867 71.2999C35.5816 71.3427 35.3229 71.3698 35.0267 71.3467C34.7262 71.3233 34.4367 71.2519 34.1715 71.1421L36.8504 64.6749C34.9979 63.9076 33.421 64.6955 32.7545 65.0941C32.0923 65.4901 31.3792 66.0855 30.8359 66.53L35.2686 71.9477ZM27.4038 78.3825L35.2686 71.9477L30.8359 66.53L22.9712 72.9648L27.4038 78.3825ZM23.6297 79.9672C24.8103 80.0261 25.7072 79.5877 26.2423 79.254C26.6926 78.9732 27.1434 78.5956 27.4038 78.3825L22.9712 72.9648C22.795 73.1089 22.6852 73.1985 22.5949 73.2688C22.5037 73.3398 22.4966 73.3403 22.5385 73.3141C22.583 73.2864 22.7452 73.1887 22.9998 73.1054C23.2788 73.014 23.6137 72.9577 23.9784 72.9759L23.6297 79.9672ZM20.0319 78.0149C20.2699 78.2528 20.6809 78.6734 21.101 78.9976C21.6002 79.3828 22.4491 79.9083 23.6297 79.9672L23.9783 72.9759C24.343 72.9941 24.6707 73.0834 24.9392 73.2021C25.1842 73.3104 25.3359 73.4237 25.3774 73.4557C25.4165 73.4859 25.4095 73.4847 25.3258 73.405C25.243 73.3261 25.1426 73.226 24.9817 73.0651L20.0319 78.0149ZM11.985 69.9679L20.0319 78.0149L24.9817 73.0651L16.9348 65.0182L11.985 69.9679ZM10.0327 66.3702C10.0915 67.5508 10.6171 68.3997 11.0023 68.8989C11.3265 69.319 11.7471 69.73 11.985 69.9679L16.9348 65.0182C16.7738 64.8573 16.6738 64.7569 16.5949 64.674C16.5152 64.5904 16.514 64.5834 16.5441 64.6224C16.5762 64.664 16.6895 64.8156 16.7978 65.0606C16.9164 65.3292 17.0058 65.6568 17.024 66.0215L10.0327 66.3702ZM11.6173 62.596C11.4042 62.8565 11.0266 63.3073 10.7459 63.7576C10.4122 64.2926 9.97377 65.1896 10.0327 66.3702L17.024 66.0215C17.0422 66.3862 16.9859 66.7211 16.8945 67.0001C16.8111 67.2547 16.7135 67.4168 16.6857 67.4614C16.6596 67.5032 16.6601 67.4961 16.7311 67.405C16.8013 67.3147 16.8909 67.2048 17.035 67.0287L11.6173 62.596ZM18.052 54.7314L11.6173 62.596L17.035 67.0287L23.4697 59.1641L18.052 54.7314ZM18.8577 55.8284C18.7478 55.5632 18.6765 55.2738 18.6531 54.9733C18.63 54.6771 18.6571 54.4184 18.6999 54.2132C18.7416 54.0134 18.7976 53.8664 18.8342 53.7819C18.8531 53.7384 18.8692 53.706 18.8799 53.6857C18.8905 53.6654 18.8972 53.6542 18.8979 53.6529C18.8981 53.6526 18.8831 53.6775 18.8429 53.7342C18.8033 53.7902 18.7486 53.8639 18.6732 53.9612C18.516 54.164 18.3208 54.403 18.052 54.7314L23.4697 59.1641C23.9142 58.6208 24.5097 57.9077 24.9057 57.2455C25.3043 56.5789 26.0922 55.0021 25.3249 53.1497L18.8577 55.8284ZM19.0637 57.1738C19.486 57.2161 19.793 57.247 20.0476 57.2793C20.1697 57.2947 20.2605 57.3082 20.3281 57.3197C20.3966 57.3314 20.4248 57.3384 20.4244 57.3383C20.4231 57.338 20.4104 57.3348 20.3885 57.3279C20.3667 57.3211 20.3323 57.3096 20.2882 57.2921C20.2025 57.2583 20.059 57.1939 19.8882 57.0821C19.7129 56.9673 19.5108 56.8036 19.3177 56.5778C19.1218 56.3488 18.9675 56.0936 18.8577 55.8284L25.3249 53.1497C24.5575 51.2972 22.8854 50.7393 22.1322 50.5498C21.384 50.3616 20.4587 50.2784 19.7602 50.2086L19.0637 57.1738ZM8.95273 56.1627L19.0637 57.1738L19.7602 50.2086L9.64925 49.1975L8.95273 56.1627ZM5.16347 54.6145C5.95665 55.491 6.90092 55.8152 7.51518 55.9576C8.03211 56.0775 8.61787 56.1292 8.95272 56.1627L9.64926 49.1975C9.42282 49.1748 9.28178 49.1605 9.16827 49.1464C9.05363 49.1321 9.04824 49.1274 9.09632 49.1385C9.14742 49.1504 9.33116 49.196 9.57011 49.3171C9.83199 49.4497 10.1086 49.6468 10.3536 49.9175L5.16347 54.6145ZM4 50.69C4 51.0265 3.9932 51.6146 4.06103 52.1408C4.14163 52.7662 4.37028 53.7381 5.16347 54.6145L10.3536 49.9175C10.5986 50.1882 10.7672 50.4831 10.8731 50.7569C10.9698 51.0067 10.9969 51.194 11.0036 51.2461C11.0099 51.295 11.0058 51.2892 11.003 51.1737C11.0002 51.0594 11 50.9176 11 50.69H4ZM4 39.31L4 50.69L11 50.69L11 39.31L4 39.31ZM5.16347 35.3855C4.37028 36.2619 4.14163 37.2338 4.06103 37.8592C3.9932 38.3854 4 38.9734 4 39.31H11C11 39.0824 11.0002 38.9406 11.003 38.8263C11.0058 38.7108 11.0099 38.705 11.0036 38.7539C10.9969 38.8059 10.9698 38.9933 10.8731 39.2431C10.7672 39.5169 10.5986 39.8118 10.3536 40.0825L5.16347 35.3855ZM8.95273 33.8373C8.61787 33.8708 8.03211 33.9225 7.51518 34.0424C6.90092 34.1848 5.95665 34.509 5.16347 35.3855L10.3536 40.0825C10.1086 40.3532 9.83199 40.5502 9.57011 40.6829C9.33116 40.804 9.14742 40.8496 9.09632 40.8614C9.04824 40.8726 9.05363 40.8679 9.16827 40.8536C9.28178 40.8395 9.42283 40.8252 9.64926 40.8025L8.95273 33.8373ZM19.0651 32.826L8.95273 33.8373L9.64926 40.8025L19.7617 39.7913L19.0651 32.826ZM18.8591 34.1714C18.969 33.9062 19.1232 33.6511 19.3191 33.422C19.5122 33.1963 19.7143 33.0325 19.8897 32.9177C20.0604 32.8059 20.2039 32.7415 20.2896 32.7077C20.3338 32.6903 20.3681 32.6788 20.3899 32.6719C20.4118 32.6651 20.4245 32.6619 20.4258 32.6615C20.4263 32.6614 20.398 32.6684 20.3295 32.6801C20.2619 32.6917 20.1711 32.7051 20.049 32.7206C19.7944 32.7528 19.4874 32.7838 19.0651 32.826L19.7617 39.7913C20.4601 39.7214 21.3854 39.6383 22.1336 39.45C22.8868 39.2605 24.5589 38.7026 25.3263 36.8502L18.8591 34.1714ZM18.0534 35.2684C18.3222 35.5969 18.5174 35.8359 18.6746 36.0387C18.75 36.136 18.8047 36.2097 18.8443 36.2657C18.8845 36.3224 18.8995 36.3473 18.8993 36.3469C18.8986 36.3457 18.8919 36.3345 18.8813 36.3142C18.8707 36.2939 18.8545 36.2615 18.8356 36.2179C18.799 36.1334 18.743 35.9864 18.7013 35.7866C18.6585 35.5815 18.6314 35.3228 18.6545 35.0266C18.6779 34.7261 18.7492 34.4366 18.8591 34.1714L25.3263 36.8502C26.0936 34.9978 25.3057 33.4209 24.9071 32.7543C24.5111 32.0922 23.9156 31.379 23.4712 30.8358L18.0534 35.2684ZM11.6175 27.4023L18.0534 35.2684L23.4711 30.8358L17.0352 22.9696L11.6175 27.4023ZM10.0328 23.6281C9.97395 24.8087 10.4124 25.7057 10.746 26.2408C11.0268 26.6911 11.4044 27.1418 11.6175 27.4023L17.0352 22.9696C16.8911 22.7935 16.8015 22.6836 16.7312 22.5934C16.6603 22.5022 16.6598 22.4951 16.6859 22.537C16.7136 22.5815 16.8113 22.7437 16.8947 22.9982C16.986 23.2772 17.0423 23.6122 17.0241 23.9768L10.0328 23.6281ZM11.9852 20.0304C11.7472 20.2684 11.3266 20.6793 11.0025 21.0994C10.6172 21.5986 10.0917 22.4475 10.0328 23.6281L17.0241 23.9768C17.006 24.3415 16.9166 24.6692 16.7979 24.9377C16.6897 25.1827 16.5763 25.3344 16.5443 25.3759C16.5141 25.415 16.5154 25.4079 16.595 25.3243C16.6739 25.2415 16.774 25.1411 16.9349 24.9801L11.9852 20.0304ZM20.0321 11.9835L11.9852 20.0304L16.9349 24.9801L24.9818 16.9332L20.0321 11.9835ZM23.6298 10.0311C22.4492 10.09 21.6003 10.6155 21.1011 11.0008C20.681 11.3249 20.2701 11.7455 20.0321 11.9835L24.9818 16.9332C25.1428 16.7723 25.2432 16.6722 25.326 16.5933C25.4096 16.5137 25.4167 16.5124 25.3776 16.5426C25.3361 16.5746 25.1844 16.688 24.9394 16.7962C24.6709 16.9149 24.3432 17.0043 23.9785 17.0224L23.6298 10.0311ZM27.404 11.6158C27.1435 11.4027 26.6928 11.0251 26.2425 10.7443C25.7074 10.4107 24.8104 9.97225 23.6298 10.0311L23.9785 17.0224C23.6139 17.0406 23.2789 16.9843 22.9999 16.893C22.7454 16.8096 22.5832 16.7119 22.5387 16.6842C22.4968 16.6581 22.5039 16.6586 22.5951 16.7295C22.6853 16.7998 22.7952 16.8894 22.9713 17.0335L27.404 11.6158ZM35.2687 18.0506L27.404 11.6158L22.9713 17.0335L30.8361 23.4683L35.2687 18.0506ZM34.1717 18.8562C34.4369 18.7464 34.7264 18.675 35.0269 18.6516C35.3231 18.6285 35.5817 18.6557 35.7869 18.6985C35.9867 18.7401 36.1337 18.7961 36.2182 18.8328C36.2618 18.8517 36.2942 18.8678 36.3145 18.8784C36.3348 18.889 36.346 18.8957 36.3472 18.8965C36.3476 18.8967 36.3227 18.8816 36.2659 18.8415C36.21 18.8018 36.1363 18.7471 36.039 18.6717C35.8362 18.5145 35.5972 18.3193 35.2687 18.0506L30.8361 23.4683C31.3793 23.9128 32.0924 24.5083 32.7546 24.9042C33.4212 25.3028 34.9981 26.0907 36.8505 25.3234L34.1717 18.8562ZM32.8263 19.0623C32.7841 19.4846 32.7531 19.7916 32.7209 20.0461C32.7054 20.1683 32.692 20.259 32.6804 20.3266C32.6687 20.3951 32.6617 20.4234 32.6618 20.423C32.6622 20.4216 32.6654 20.409 32.6722 20.3871C32.6791 20.3652 32.6906 20.3309 32.708 20.2867C32.7418 20.2011 32.8062 20.0575 32.918 19.8868C33.0328 19.7115 33.1966 19.5094 33.4223 19.3163C33.6514 19.1203 33.9065 18.9661 34.1717 18.8563L36.8505 25.3234C38.7029 24.5561 39.2608 22.884 39.4503 22.1308C39.6386 21.3826 39.7217 20.4573 39.7916 19.7588L32.8263 19.0623ZM33.8373 8.95273L32.8263 19.0623L39.7916 19.7588L40.8025 9.64925L33.8373 8.95273ZM35.3855 5.16347C34.509 5.95665 34.1848 6.90092 34.0424 7.51518C33.9225 8.03211 33.8708 8.61787 33.8373 8.95273L40.8025 9.64926C40.8252 9.42283 40.8395 9.28178 40.8536 9.16827C40.8679 9.05363 40.8726 9.04824 40.8615 9.09632C40.8496 9.14742 40.804 9.33116 40.6829 9.57011C40.5503 9.83199 40.3532 10.1086 40.0825 10.3536L35.3855 5.16347ZM39.31 4C38.9734 4 38.3854 3.9932 37.8592 4.06103C37.2338 4.14163 36.2619 4.37028 35.3855 5.16347L40.0825 10.3536C39.8118 10.5986 39.5169 10.7672 39.2431 10.8731C38.9933 10.9698 38.8059 10.9969 38.7539 11.0036C38.705 11.0099 38.7108 11.0058 38.8263 11.003C38.9406 11.0002 39.0824 11 39.31 11V4ZM50.69 4H39.31V11H50.69V4ZM54.6145 5.16347C53.7381 4.37028 52.7662 4.14163 52.1408 4.06103C51.6146 3.9932 51.0266 4 50.69 4V11C50.9176 11 51.0594 11.0002 51.1737 11.003C51.2892 11.0058 51.295 11.0099 51.2461 11.0036C51.1941 10.9969 51.0067 10.9698 50.7569 10.8731C50.4831 10.7672 50.1882 10.5986 49.9175 10.3536L54.6145 5.16347ZM56.5 45C56.5 51.3513 51.3513 56.5 45 56.5V63.5C55.2173 63.5 63.5 55.2173 63.5 45H56.5ZM45 33.5C51.3513 33.5 56.5 38.6487 56.5 45H63.5C63.5 34.7827 55.2173 26.5 45 26.5V33.5ZM33.5 45C33.5 38.6487 38.6487 33.5 45 33.5V26.5C34.7827 26.5 26.5 34.7827 26.5 45H33.5ZM45 56.5C38.6487 56.5 33.5 51.3513 33.5 45H26.5C26.5 55.2173 34.7827 63.5 45 63.5V56.5Z" fill="#810000"/>
</svg>
