<svg xmlns="http://www.w3.org/2000/svg" width="40" height="40" viewBox="0 0 40 40" fill="none">
  <path d="M25 15H35V30C35 31.5713 35 32.357 34.5118 32.8452C34.0237 33.3333 33.238 33.3333 31.6667 33.3333H25V15Z" stroke="white" stroke-width="2" stroke-linecap="round"/>
  <path d="M5 15H15V33.3333H8.33333C6.76198 33.3333 5.97631 33.3333 5.48816 32.8452C5 32.357 5 31.5713 5 30V15Z" stroke="white" stroke-width="2" stroke-linecap="round"/>
  <rect x="15" y="15" width="10" height="18.3333" stroke="white" stroke-width="2" stroke-linecap="round"/>
  <path d="M5 9.99984C5 8.42849 5 7.64281 5.48816 7.15466C5.97631 6.6665 6.76198 6.6665 8.33333 6.6665H31.6667C33.238 6.6665 34.0237 6.6665 34.5118 7.15466C35 7.64281 35 8.42849 35 9.99984V14.9998H5V9.99984Z" stroke="white" stroke-width="2" stroke-linecap="round"/>
</svg>