<svg width="75" height="74" viewBox="0 0 75 74" fill="none" xmlns="http://www.w3.org/2000/svg">
<rect x="0.5" y="0.5" width="74" height="73" rx="4.5" fill="#810000" stroke="#810000"/>
<path fill-rule="evenodd" clip-rule="evenodd" d="M38 56.5C48.7696 56.5 57.5 47.7696 57.5 37C57.5 26.2304 48.7696 17.5 38 17.5C27.2304 17.5 18.5 26.2304 18.5 37C18.5 47.7696 27.2304 56.5 38 56.5ZM39.5 25.0833C39.5 24.2549 38.8284 23.5833 38 23.5833C37.1716 23.5833 36.5 24.2549 36.5 25.0833V36.75C36.5 37.7165 37.2835 38.5 38.25 38.5H45.5833C46.4118 38.5 47.0833 37.8284 47.0833 37C47.0833 36.1716 46.4118 35.5 45.5833 35.5H39.5V25.0833Z" fill="white"/>
</svg>
