<svg xmlns="http://www.w3.org/2000/svg" width="10" height="11" viewBox="0 1 10 11" fill="none">
  <path fill-rule="evenodd" clip-rule="evenodd" d="M10 2.66675H0V4.33341C0.61365 4.33341 1.11111 4.83087 1.11111 5.44452V7.11119C1.11111 7.93755 1.11111 8.35073 1.19198 8.69193C1.45359 9.79575 2.31544 10.6576 3.41926 10.9192C3.76046 11.0001 4.17364 11.0001 5 11.0001C5.82636 11.0001 6.23954 11.0001 6.58074 10.9192C7.68456 10.6576 8.54641 9.79575 8.80802 8.69193C8.88889 8.35073 8.88889 7.93755 8.88889 7.1112V5.44453C8.88889 4.83088 9.38635 4.33341 10 4.33341V2.66675ZM4.61133 5.44451C4.61133 4.89223 4.16361 4.44451 3.61133 4.44451C3.05904 4.44451 2.61133 4.89223 2.61133 5.44451V8.22229C2.61133 8.77458 3.05904 9.22229 3.61133 9.22229C4.16361 9.22229 4.61133 8.77458 4.61133 8.22229V5.44451ZM7.38911 5.44451C7.38911 4.89223 6.94139 4.44451 6.38911 4.44451C5.83682 4.44451 5.38911 4.89223 5.38911 5.44451V8.22229C5.38911 8.77458 5.83682 9.22229 6.38911 9.22229C6.94139 9.22229 7.38911 8.77458 7.38911 8.22229V5.44451Z" fill="white"/>
  <path d="M3.92697 1.20588C3.99027 1.14682 4.12977 1.09463 4.32382 1.0574C4.51786 1.02018 4.75562 1 5.00022 1C5.24481 1 5.48257 1.02018 5.67662 1.0574C5.87067 1.09463 6.01016 1.14682 6.07347 1.20588" stroke="white" stroke-linecap="round"/>
</svg>